<?xml version="1.0"?>
<svg id="Layer_1" xmlns="http://www.w3.org/2000/svg" version="1.1" viewBox="0 0 503 112">
  
  <defs>
    
  </defs>
  <path class="st0" d="M2.22,24.98h61.59v13.01H20.46v9.24h36.79v13.01H20.46v26.91H2.22V24.98h0ZM102.2,24.98h-18.23l-27.86,62.16h18.23l5.55-11.8h26.59l5.87,11.8h18.55l-28.69-62.16h0ZM84.85,64.32h0l8.35-20.4,8.99,20.4h-17.34ZM136.5,24.98h18.23l35.58,42.85V24.98h18.23v62.16h-20.91l-32.96-39.91v39.91h-18.23V24.98h.06ZM220.53,24.98h18.11v39.27c0,8.8,7.08,13.58,17.66,13.58s17.66-4.78,17.66-13.58V24.98h18.43v43.04c0,17.66-25.06,21.49-36.02,21.49s-35.7-3.25-35.7-25.18V24.98h-.13ZM382.92,48.64c0-6.06-8.35-26.14-40.68-26.14s-40.36,19.77-40.36,33.09c0,17.72,9.95,30.41,30.86,33.28,1.02.13,2.1.26,3.19.38.57.06,1.15.13,1.79.13.89.06,3,.13,4.59.13,1.47,0,3-.06,4.59-.19.38,0,.83-.06,1.28-.13,1.02-.06,2.04-.19,3.06-.32,14.6-2.04,31.82-9.37,31.82-27.99h-21.36c0,10.97-7.71,17.15-19.32,17.15s-19.19-6.95-19.19-22.44c0-14.66,8.03-22.44,19.19-22.44s19.32,8.22,19.32,15.49c0,0,21.23,0,21.23,0Z"></path>
</svg>