<svg width="638" height="451" xmlns="http://www.w3.org/2000/svg" xmlns:xlink="http://www.w3.org/1999/xlink" xml:space="preserve" overflow="hidden"><defs><linearGradient x1="482.097" y1="27.2304" x2="336.85" y2="426.308" gradientUnits="userSpaceOnUse" spreadMethod="pad" id="fill0"><stop offset="0" stop-color="#0B0055" stop-opacity="1"></stop><stop offset="0.47" stop-color="#0B0055" stop-opacity="1"></stop><stop offset="1" stop-color="#C520FA" stop-opacity="1"></stop></linearGradient></defs><g transform="translate(-290 -58)"><g><g><g><g><path d="M489.051 226.787C489.051 270.389 453.704 305.736 410.102 305.736 366.5 305.736 331.153 270.389 331.153 226.787 331.153 183.185 366.5 147.838 410.102 147.838 453.704 147.838 489.051 183.185 489.051 226.787Z" fill="#FAFCF8" fill-rule="nonzero" fill-opacity="1" transform="matrix(1.0018 0 0 1 291 59.1095)"></path><path d="M171.796 66.1165C171.957 84.4889 183.876 89.13 198.824 89.13L262.441 89.13C280.409 63.8086 297.257 62.9551 336.739 40.3254L416.682 27.8768C416.682 16.7665 425.752 14.4838 402.35 14.4838L170.745 14.4838C170.745 14.4838 171.796 66.1165 171.796 66.1165Z" fill="#070052" fill-rule="nonzero" fill-opacity="1" transform="matrix(1.0018 0 0 1 291 59.1095)"></path><text fill="#FFFFFF" fill-opacity="1" font-family="Spezia Wide,Spezia Wide_MSFontService,sans-serif" font-style="normal" font-variant="normal" font-weight="700" font-stretch="semi-expanded" font-size="24" text-anchor="start" direction="ltr" writing-mode="lr-tb" unicode-bidi="normal" text-decoration="none" transform="matrix(0.505921 0 0 0.505014 474.831 95)">Planning</text><text fill="#FFFFFF" fill-opacity="1" font-family="Spezia Wide,Spezia Wide_MSFontService,sans-serif" font-style="normal" font-variant="normal" font-weight="400" font-stretch="semi-expanded" font-size="24" text-anchor="start" direction="ltr" writing-mode="lr-tb" unicode-bidi="normal" text-decoration="none" transform="matrix(0.505921 0 0 0.505014 474.831 111)">t</text><text fill="#FFFFFF" fill-opacity="1" font-family="Spezia Wide,Spezia Wide_MSFontService,sans-serif" font-style="normal" font-variant="normal" font-weight="400" font-stretch="semi-expanded" font-size="24" text-anchor="start" direction="ltr" writing-mode="lr-tb" unicode-bidi="normal" text-decoration="none" transform="matrix(0.505921 0 0 0.505014 480.047 111)">h</text><text fill="#FFFFFF" fill-opacity="1" font-family="Spezia Wide,Spezia Wide_MSFontService,sans-serif" font-style="normal" font-variant="normal" font-weight="400" font-stretch="semi-expanded" font-size="24" text-anchor="start" direction="ltr" writing-mode="lr-tb" unicode-bidi="normal" text-decoration="none" transform="matrix(0.505921 0 0 0.505014 487.823 111)">e</text><text fill="#FFFFFF" fill-opacity="1" font-family="Spezia Wide,Spezia Wide_MSFontService,sans-serif" font-style="normal" font-variant="normal" font-weight="400" font-stretch="semi-expanded" font-size="24" text-anchor="start" direction="ltr" writing-mode="lr-tb" unicode-bidi="normal" text-decoration="none" transform="matrix(0.505921 0 0 0.505014 495.043 111)">U</text><text fill="#FFFFFF" fill-opacity="1" font-family="Spezia Wide,Spezia Wide_MSFontService,sans-serif" font-style="normal" font-variant="normal" font-weight="400" font-stretch="semi-expanded" font-size="24" text-anchor="start" direction="ltr" writing-mode="lr-tb" unicode-bidi="normal" text-decoration="none" transform="matrix(0.505921 0 0 0.505014 507.479 111)">X</text><text fill="#FFFFFF" fill-opacity="1" font-family="Spezia Wide,Spezia Wide_MSFontService,sans-serif" font-style="normal" font-variant="normal" font-weight="400" font-stretch="semi-expanded" font-size="24" text-anchor="start" direction="ltr" writing-mode="lr-tb" unicode-bidi="normal" text-decoration="none" transform="matrix(0.505921 0 0 0.505014 519.084 111)">p</text><text fill="#FFFFFF" fill-opacity="1" font-family="Spezia Wide,Spezia Wide_MSFontService,sans-serif" font-style="normal" font-variant="normal" font-weight="400" font-stretch="semi-expanded" font-size="24" text-anchor="start" direction="ltr" writing-mode="lr-tb" unicode-bidi="normal" text-decoration="none" transform="matrix(0.505921 0 0 0.505014 527.042 111)">r</text><text fill="#FFFFFF" fill-opacity="1" font-family="Spezia Wide,Spezia Wide_MSFontService,sans-serif" font-style="normal" font-variant="normal" font-weight="400" font-stretch="semi-expanded" font-size="24" text-anchor="start" direction="ltr" writing-mode="lr-tb" unicode-bidi="normal" text-decoration="none" transform="matrix(0.505921 0 0 0.505014 531.995 111)">oce</text><text fill="#FFFFFF" fill-opacity="1" font-family="Spezia Wide,Spezia Wide_MSFontService,sans-serif" font-style="normal" font-variant="normal" font-weight="400" font-stretch="semi-expanded" font-size="24" text-anchor="start" direction="ltr" writing-mode="lr-tb" unicode-bidi="normal" text-decoration="none" transform="matrix(0.505921 0 0 0.505014 554.069 111)">s</text><text fill="#FFFFFF" fill-opacity="1" font-family="Spezia Wide,Spezia Wide_MSFontService,sans-serif" font-style="normal" font-variant="normal" font-weight="400" font-stretch="semi-expanded" font-size="24" text-anchor="start" direction="ltr" writing-mode="lr-tb" unicode-bidi="normal" text-decoration="none" transform="matrix(0.505921 0 0 0.505014 560.959 111)">s</text><text fill="#FFFFFF" fill-opacity="1" font-family="Spezia Wide,Spezia Wide_MSFontService,sans-serif" font-style="normal" font-variant="normal" font-weight="400" font-stretch="semi-expanded" font-size="24" text-anchor="start" direction="ltr" writing-mode="lr-tb" unicode-bidi="normal" text-decoration="none" transform="matrix(0.505921 0 0 0.505014 474.831 127)">i</text><text fill="#FFFFFF" fill-opacity="1" font-family="Spezia Wide,Spezia Wide_MSFontService,sans-serif" font-style="normal" font-variant="normal" font-weight="400" font-stretch="semi-expanded" font-size="24" text-anchor="start" direction="ltr" writing-mode="lr-tb" unicode-bidi="normal" text-decoration="none" transform="matrix(0.505921 0 0 0.505014 477.923 127)">n</text><text fill="#FFFFFF" fill-opacity="1" font-family="Spezia Wide,Spezia Wide_MSFontService,sans-serif" font-style="normal" font-variant="normal" font-weight="400" font-stretch="semi-expanded" font-size="24" text-anchor="start" direction="ltr" writing-mode="lr-tb" unicode-bidi="normal" text-decoration="none" transform="matrix(0.505921 0 0 0.505014 488.8 127)">t</text><text fill="#FFFFFF" fill-opacity="1" font-family="Spezia Wide,Spezia Wide_MSFontService,sans-serif" font-style="normal" font-variant="normal" font-weight="400" font-stretch="semi-expanded" font-size="24" text-anchor="start" direction="ltr" writing-mode="lr-tb" unicode-bidi="normal" text-decoration="none" transform="matrix(0.505921 0 0 0.505014 494.016 127)">h</text><text fill="#FFFFFF" fill-opacity="1" font-family="Spezia Wide,Spezia Wide_MSFontService,sans-serif" font-style="normal" font-variant="normal" font-weight="400" font-stretch="semi-expanded" font-size="24" text-anchor="start" direction="ltr" writing-mode="lr-tb" unicode-bidi="normal" text-decoration="none" transform="matrix(0.505921 0 0 0.505014 501.792 127)">e</text><text fill="#FFFFFF" fill-opacity="1" font-family="Spezia Wide,Spezia Wide_MSFontService,sans-serif" font-style="normal" font-variant="normal" font-weight="400" font-stretch="semi-expanded" font-size="24" text-anchor="start" direction="ltr" writing-mode="lr-tb" unicode-bidi="normal" text-decoration="none" transform="matrix(0.505921 0 0 0.505014 512.32 127)">p</text><text fill="#FFFFFF" fill-opacity="1" font-family="Spezia Wide,Spezia Wide_MSFontService,sans-serif" font-style="normal" font-variant="normal" font-weight="400" font-stretch="semi-expanded" font-size="24" text-anchor="start" direction="ltr" writing-mode="lr-tb" unicode-bidi="normal" text-decoration="none" transform="matrix(0.505921 0 0 0.505014 520.278 127)">r</text><text fill="#FFFFFF" fill-opacity="1" font-family="Spezia Wide,Spezia Wide_MSFontService,sans-serif" font-style="normal" font-variant="normal" font-weight="400" font-stretch="semi-expanded" font-size="24" text-anchor="start" direction="ltr" writing-mode="lr-tb" unicode-bidi="normal" text-decoration="none" transform="matrix(0.505921 0 0 0.505014 525.231 127)">oje</text><text fill="#FFFFFF" fill-opacity="1" font-family="Spezia Wide,Spezia Wide_MSFontService,sans-serif" font-style="normal" font-variant="normal" font-weight="400" font-stretch="semi-expanded" font-size="24" text-anchor="start" direction="ltr" writing-mode="lr-tb" unicode-bidi="normal" text-decoration="none" transform="matrix(0.505921 0 0 0.505014 543.293 127)">c</text><text fill="#FFFFFF" fill-opacity="1" font-family="Spezia Wide,Spezia Wide_MSFontService,sans-serif" font-style="normal" font-variant="normal" font-weight="400" font-stretch="semi-expanded" font-size="24" text-anchor="start" direction="ltr" writing-mode="lr-tb" unicode-bidi="normal" text-decoration="none" transform="matrix(0.505921 0 0 0.505014 550.446 127)">t</text><path d="M409.476 14.4788C292.232 14.4788 197.188 109.522 197.188 226.767 197.188 344.011 292.232 439.055 409.476 439.055 526.72 439.055 621.764 344.011 621.764 226.767 621.764 109.522 526.72 14.4788 409.476 14.4788ZM410.102 418.965C303.953 418.965 217.904 332.916 217.904 226.767 217.904 120.618 303.953 34.5682 410.102 34.5682 516.251 34.5682 602.3 120.618 602.3 226.767 602.3 332.916 516.251 418.965 410.102 418.965Z" fill="url(#fill0)" fill-rule="nonzero" transform="matrix(1.0018 0 0 1 291 59.1095)"></path><text fill="#070052" fill-opacity="1" font-family="Spezia Wide,Spezia Wide_MSFontService,sans-serif" font-style="normal" font-variant="normal" font-weight="700" font-stretch="semi-expanded" font-size="34" text-anchor="start" direction="ltr" writing-mode="lr-tb" unicode-bidi="normal" text-decoration="none" transform="matrix(0.505921 0 0 0.505014 637.009 156)">Und</text><text fill="#070052" fill-opacity="1" font-family="Spezia Wide,Spezia Wide_MSFontService,sans-serif" font-style="normal" font-variant="normal" font-weight="700" font-stretch="semi-expanded" font-size="34" text-anchor="start" direction="ltr" writing-mode="lr-tb" unicode-bidi="normal" text-decoration="none" transform="matrix(0.505921 0 0 0.505014 673.83 156)">e</text><text fill="#070052" fill-opacity="1" font-family="Spezia Wide,Spezia Wide_MSFontService,sans-serif" font-style="normal" font-variant="normal" font-weight="700" font-stretch="semi-expanded" font-size="34" text-anchor="start" direction="ltr" writing-mode="lr-tb" unicode-bidi="normal" text-decoration="none" transform="matrix(0.505921 0 0 0.505014 684.617 156)">r</text><text fill="#070052" fill-opacity="1" font-family="Spezia Wide,Spezia Wide_MSFontService,sans-serif" font-style="normal" font-variant="normal" font-weight="700" font-stretch="semi-expanded" font-size="34" text-anchor="start" direction="ltr" writing-mode="lr-tb" unicode-bidi="normal" text-decoration="none" transform="matrix(0.505921 0 0 0.505014 692.226 156)">standing</text><text fill="#070052" fill-opacity="1" font-family="Spezia Wide,Spezia Wide_MSFontService,sans-serif" font-style="normal" font-variant="normal" font-weight="400" font-stretch="semi-expanded" font-size="20" text-anchor="start" direction="ltr" writing-mode="lr-tb" unicode-bidi="normal" text-decoration="none" transform="matrix(0.505921 0 0 0.505014 659.538 171)">t</text><text fill="#070052" fill-opacity="1" font-family="Spezia Wide,Spezia Wide_MSFontService,sans-serif" font-style="normal" font-variant="normal" font-weight="400" font-stretch="semi-expanded" font-size="20" text-anchor="start" direction="ltr" writing-mode="lr-tb" unicode-bidi="normal" text-decoration="none" transform="matrix(0.505921 0 0 0.505014 663.884 171)">h</text><text fill="#070052" fill-opacity="1" font-family="Spezia Wide,Spezia Wide_MSFontService,sans-serif" font-style="normal" font-variant="normal" font-weight="400" font-stretch="semi-expanded" font-size="20" text-anchor="start" direction="ltr" writing-mode="lr-tb" unicode-bidi="normal" text-decoration="none" transform="matrix(0.505921 0 0 0.505014 670.365 171)">e</text><text fill="#070052" fill-opacity="1" font-family="Spezia Wide,Spezia Wide_MSFontService,sans-serif" font-style="normal" font-variant="normal" font-weight="400" font-stretch="semi-expanded" font-size="20" text-anchor="start" direction="ltr" writing-mode="lr-tb" unicode-bidi="normal" text-decoration="none" transform="matrix(0.505921 0 0 0.505014 679.057 171)">co</text><text fill="#070052" fill-opacity="1" font-family="Spezia Wide,Spezia Wide_MSFontService,sans-serif" font-style="normal" font-variant="normal" font-weight="400" font-stretch="semi-expanded" font-size="20" text-anchor="start" direction="ltr" writing-mode="lr-tb" unicode-bidi="normal" text-decoration="none" transform="matrix(0.505921 0 0 0.505014 691.361 171)">n</text><text fill="#070052" fill-opacity="1" font-family="Spezia Wide,Spezia Wide_MSFontService,sans-serif" font-style="normal" font-variant="normal" font-weight="400" font-stretch="semi-expanded" font-size="20" text-anchor="start" direction="ltr" writing-mode="lr-tb" unicode-bidi="normal" text-decoration="none" transform="matrix(0.505921 0 0 0.505014 697.831 171)">t</text><text fill="#070052" fill-opacity="1" font-family="Spezia Wide,Spezia Wide_MSFontService,sans-serif" font-style="normal" font-variant="normal" font-weight="400" font-stretch="semi-expanded" font-size="20" text-anchor="start" direction="ltr" writing-mode="lr-tb" unicode-bidi="normal" text-decoration="none" transform="matrix(0.505921 0 0 0.505014 702.086 171)">e</text><text fill="#070052" fill-opacity="1" font-family="Spezia Wide,Spezia Wide_MSFontService,sans-serif" font-style="normal" font-variant="normal" font-weight="400" font-stretch="semi-expanded" font-size="20" text-anchor="start" direction="ltr" writing-mode="lr-tb" unicode-bidi="normal" text-decoration="none" transform="matrix(0.505921 0 0 0.505014 708.177 171)">x</text><text fill="#070052" fill-opacity="1" font-family="Spezia Wide,Spezia Wide_MSFontService,sans-serif" font-style="normal" font-variant="normal" font-weight="400" font-stretch="semi-expanded" font-size="20" text-anchor="start" direction="ltr" writing-mode="lr-tb" unicode-bidi="normal" text-decoration="none" transform="matrix(0.505921 0 0 0.505014 713.667 171)">t</text><text fill="#070052" fill-opacity="1" font-family="Spezia Wide,Spezia Wide_MSFontService,sans-serif" font-style="normal" font-variant="normal" font-weight="400" font-stretch="semi-expanded" font-size="20" text-anchor="start" direction="ltr" writing-mode="lr-tb" unicode-bidi="normal" text-decoration="none" transform="matrix(0.505921 0 0 0.505014 720.618 171)">o</text><text fill="#070052" fill-opacity="1" font-family="Spezia Wide,Spezia Wide_MSFontService,sans-serif" font-style="normal" font-variant="normal" font-weight="400" font-stretch="semi-expanded" font-size="20" text-anchor="start" direction="ltr" writing-mode="lr-tb" unicode-bidi="normal" text-decoration="none" transform="matrix(0.505921 0 0 0.505014 726.957 171)">f</text><text fill="#070052" fill-opacity="1" font-family="Spezia Wide,Spezia Wide_MSFontService,sans-serif" font-style="normal" font-variant="normal" font-weight="400" font-stretch="semi-expanded" font-size="20" text-anchor="start" direction="ltr" writing-mode="lr-tb" unicode-bidi="normal" text-decoration="none" transform="matrix(0.505921 0 0 0.505014 733.615 171)">u</text><text fill="#070052" fill-opacity="1" font-family="Spezia Wide,Spezia Wide_MSFontService,sans-serif" font-style="normal" font-variant="normal" font-weight="400" font-stretch="semi-expanded" font-size="20" text-anchor="start" direction="ltr" writing-mode="lr-tb" unicode-bidi="normal" text-decoration="none" transform="matrix(0.505921 0 0 0.505014 739.995 171)">s</text><text fill="#070052" fill-opacity="1" font-family="Spezia Wide,Spezia Wide_MSFontService,sans-serif" font-style="normal" font-variant="normal" font-weight="400" font-stretch="semi-expanded" font-size="20" text-anchor="start" direction="ltr" writing-mode="lr-tb" unicode-bidi="normal" text-decoration="none" transform="matrix(0.505921 0 0 0.505014 745.732 171)">e</text><text fill="#070052" fill-opacity="1" font-family="Spezia Wide,Spezia Wide_MSFontService,sans-serif" font-style="normal" font-variant="normal" font-weight="700" font-stretch="semi-expanded" font-size="34" text-anchor="start" direction="ltr" writing-mode="lr-tb" unicode-bidi="normal" text-decoration="none" transform="matrix(0.505921 0 0 0.505014 802.835 279)">Speci</text><text fill="#070052" fill-opacity="1" font-family="Spezia Wide,Spezia Wide_MSFontService,sans-serif" font-style="normal" font-variant="normal" font-weight="700" font-stretch="semi-expanded" font-size="34" text-anchor="start" direction="ltr" writing-mode="lr-tb" unicode-bidi="normal" text-decoration="none" transform="matrix(0.505921 0 0 0.505014 853.66 279)">f</text><text fill="#070052" fill-opacity="1" font-family="Spezia Wide,Spezia Wide_MSFontService,sans-serif" font-style="normal" font-variant="normal" font-weight="700" font-stretch="semi-expanded" font-size="34" text-anchor="start" direction="ltr" writing-mode="lr-tb" unicode-bidi="normal" text-decoration="none" transform="matrix(0.505921 0 0 0.505014 861.249 279)">y</text><path d="M512.973 228.029 515.554 228.029C517.69 228.029 519.034 229.322 519.034 231.524 519.034 233.726 517.705 235.099 515.534 235.099L512.973 235.099 512.973 228.029ZM515.398 234.433C517.534 234.433 518.322 233.115 518.322 231.534 518.322 229.953 517.534 228.696 515.398 228.696L513.675 228.696 513.675 234.438 515.398 234.438Z" fill="#070052" fill-rule="nonzero" fill-opacity="1" transform="matrix(1.0018 0 0 1 291 59.1095)"></path><path d="M520.342 232.539C520.342 230.888 521.336 229.832 522.902 229.832 524.291 229.832 525.22 230.675 525.22 232.1L525.22 232.716 521.013 232.716C521.054 233.842 521.72 234.564 522.892 234.564 523.761 234.564 524.311 234.165 524.604 233.589L525.139 233.902C524.71 234.665 523.968 235.175 522.852 235.175 521.235 235.175 520.342 234.104 520.342 232.539ZM524.528 232.14 524.528 231.978C524.528 231.019 523.872 230.443 522.872 230.443 521.786 230.443 521.104 231.13 521.018 232.14L524.528 232.14Z" fill="#070052" fill-rule="nonzero" fill-opacity="1" transform="matrix(1.0018 0 0 1 291 59.1095)"></path><path d="M527.23 230.554 526.089 230.554 526.089 229.933 527.23 229.933 527.23 229.236C527.23 228.13 527.796 227.666 528.77 227.666 529.063 227.666 529.341 227.711 529.619 227.802L529.528 228.388C529.29 228.307 529.068 228.272 528.851 228.272 528.154 228.272 527.902 228.676 527.902 229.332L527.902 229.928 529.492 229.928 529.492 230.549 527.902 230.549 527.902 235.094 527.225 235.094 527.225 230.549 527.23 230.549Z" fill="#070052" fill-rule="nonzero" fill-opacity="1" transform="matrix(1.0018 0 0 1 291 59.1095)"></path><path d="M530.78 228.009 531.553 228.009 531.553 229.004 530.78 229.004 530.78 228.009ZM530.836 229.933 531.513 229.933 531.513 235.099 530.836 235.099 530.836 229.933Z" fill="#070052" fill-rule="nonzero" fill-opacity="1" transform="matrix(1.0018 0 0 1 291 59.1095)"></path><path d="M533.401 229.933 534.078 229.933 534.078 231.004C534.401 230.297 535.032 229.837 536.053 229.837 537.315 229.837 538.027 230.559 538.027 231.721L538.027 235.104 537.351 235.104 537.351 231.994C537.351 231.019 536.856 230.463 535.911 230.463 534.734 230.463 534.083 231.312 534.083 232.286L534.083 235.104 533.406 235.104 533.406 229.938 533.401 229.938Z" fill="#070052" fill-rule="nonzero" fill-opacity="1" transform="matrix(1.0018 0 0 1 291 59.1095)"></path><path d="M539.522 232.539C539.522 230.888 540.517 229.832 542.083 229.832 543.471 229.832 544.401 230.675 544.401 232.1L544.401 232.716 540.194 232.716C540.234 233.842 540.901 234.564 542.072 234.564 542.941 234.564 543.491 234.165 543.784 233.589L544.32 233.902C543.89 234.665 543.148 235.175 542.032 235.175 540.416 235.175 539.522 234.104 539.522 232.539ZM543.709 232.14 543.709 231.978C543.709 231.019 543.052 230.443 542.052 230.443 540.966 230.443 540.285 231.13 540.199 232.14L543.709 232.14Z" fill="#070052" fill-rule="nonzero" fill-opacity="1" transform="matrix(1.0018 0 0 1 291 59.1095)"></path><path d="M548.521 233.296 548.521 229.933 549.198 229.933 549.198 233.024C549.198 233.993 549.688 234.549 550.587 234.549 551.723 234.549 552.37 233.7 552.37 232.731L552.37 229.933 553.046 229.933 553.046 235.099 552.37 235.099 552.37 234.009C552.046 234.716 551.415 235.175 550.445 235.175 549.244 235.175 548.521 234.463 548.521 233.291Z" fill="#070052" fill-rule="nonzero" fill-opacity="1" transform="matrix(1.0018 0 0 1 291 59.1095)"></path><path d="M554.597 233.726 555.218 233.488C555.481 234.256 556.203 234.604 557.016 234.604 557.829 234.604 558.45 234.231 558.45 233.655 558.45 232.973 557.637 232.872 556.814 232.761 555.809 232.63 554.708 232.478 554.708 231.362 554.708 230.398 555.526 229.832 556.773 229.832 557.95 229.832 558.718 230.342 559.006 231.13L558.41 231.362C558.167 230.746 557.586 230.413 556.748 230.413 555.91 230.413 555.38 230.746 555.38 231.302 555.38 231.988 556.167 232.095 557.021 232.206 558.026 232.332 559.122 232.468 559.122 233.574 559.122 234.554 558.248 235.18 556.996 235.18 555.859 235.18 554.92 234.67 554.592 233.726L554.597 233.726Z" fill="#070052" fill-rule="nonzero" fill-opacity="1" transform="matrix(1.0018 0 0 1 291 59.1095)"></path><path d="M560.324 232.539C560.324 230.888 561.318 229.832 562.884 229.832 564.273 229.832 565.202 230.675 565.202 232.1L565.202 232.716 560.995 232.716C561.036 233.842 561.702 234.564 562.874 234.564 563.743 234.564 564.293 234.165 564.586 233.589L565.121 233.902C564.692 234.665 563.95 235.175 562.833 235.175 561.217 235.175 560.324 234.104 560.324 232.539ZM564.52 232.14 564.52 231.978C564.52 231.019 563.864 230.443 562.864 230.443 561.778 230.443 561.096 231.13 561.01 232.14L564.52 232.14Z" fill="#070052" fill-rule="nonzero" fill-opacity="1" transform="matrix(1.0018 0 0 1 291 59.1095)"></path><path d="M566.747 229.933 567.424 229.933 567.424 231.105C567.737 230.221 568.444 229.883 569.252 229.883 569.419 229.883 569.596 229.898 569.777 229.933L569.737 230.585C569.56 230.559 569.394 230.539 569.202 230.539 568.04 230.539 567.424 231.271 567.424 232.519L567.424 235.104 566.747 235.104 566.747 229.938Z" fill="#070052" fill-rule="nonzero" fill-opacity="1" transform="matrix(1.0018 0 0 1 291 59.1095)"></path><path d="M512.878 242.558 513.554 242.558 513.554 243.73C513.867 242.846 514.574 242.508 515.382 242.508 515.549 242.508 515.726 242.523 515.908 242.558L515.867 243.21C515.69 243.185 515.524 243.164 515.332 243.164 514.17 243.164 513.554 243.897 513.554 245.144L513.554 247.73 512.878 247.73 512.878 242.563Z" fill="#070052" fill-rule="nonzero" fill-opacity="1" transform="matrix(1.0018 0 0 1 291 59.1095)"></path><path d="M516.65 245.164C516.65 243.513 517.645 242.457 519.21 242.457 520.599 242.457 521.528 243.301 521.528 244.725L521.528 245.341 517.322 245.341C517.362 246.467 518.029 247.189 519.2 247.189 520.069 247.189 520.619 246.79 520.912 246.215L521.448 246.528C521.018 247.29 520.276 247.8 519.16 247.8 517.544 247.8 516.65 246.73 516.65 245.164ZM520.836 244.765 520.836 244.604C520.836 243.644 520.18 243.068 519.18 243.068 518.094 243.068 517.413 243.755 517.327 244.765L520.836 244.765Z" fill="#070052" fill-rule="nonzero" fill-opacity="1" transform="matrix(1.0018 0 0 1 291 59.1095)"></path><path d="M525.164 247.725C523.483 247.725 522.73 246.487 522.73 245.089 522.73 243.69 523.488 242.457 525.149 242.457 526.058 242.457 526.74 242.826 527.129 243.669L527.129 242.553 527.806 242.553 527.806 249.613 527.129 249.613 527.129 246.503C526.745 247.351 526.079 247.72 525.164 247.72ZM525.255 247.114C526.402 247.114 527.124 246.301 527.124 245.089 527.124 243.877 526.402 243.074 525.255 243.074 524.109 243.074 523.402 243.877 523.402 245.089 523.402 246.301 524.119 247.114 525.255 247.114Z" fill="#070052" fill-rule="nonzero" fill-opacity="1" transform="matrix(1.0018 0 0 1 291 59.1095)"></path><path d="M529.644 245.922 529.644 242.558 530.321 242.558 530.321 245.649C530.321 246.619 530.811 247.174 531.709 247.174 532.846 247.174 533.492 246.326 533.492 245.356L533.492 242.558 534.169 242.558 534.169 247.725 533.492 247.725 533.492 246.634C533.169 247.341 532.538 247.8 531.568 247.8 530.366 247.8 529.644 247.088 529.644 245.917Z" fill="#070052" fill-rule="nonzero" fill-opacity="1" transform="matrix(1.0018 0 0 1 291 59.1095)"></path><path d="M536.012 240.634 536.785 240.634 536.785 241.629 536.012 241.629 536.012 240.634ZM536.063 242.558 536.739 242.558 536.739 247.725 536.063 247.725 536.063 242.558Z" fill="#070052" fill-rule="nonzero" fill-opacity="1" transform="matrix(1.0018 0 0 1 291 59.1095)"></path><path d="M538.638 242.558 539.315 242.558 539.315 243.73C539.628 242.846 540.335 242.508 541.143 242.508 541.31 242.508 541.487 242.523 541.668 242.558L541.628 243.21C541.451 243.185 541.285 243.164 541.093 243.164 539.931 243.164 539.315 243.897 539.315 245.144L539.315 247.73 538.638 247.73 538.638 242.563Z" fill="#070052" fill-rule="nonzero" fill-opacity="1" transform="matrix(1.0018 0 0 1 291 59.1095)"></path><path d="M542.411 245.164C542.411 243.513 543.406 242.457 544.971 242.457 546.36 242.457 547.289 243.301 547.289 244.725L547.289 245.341 543.082 245.341C543.123 246.467 543.789 247.189 544.961 247.189 545.83 247.189 546.38 246.79 546.673 246.215L547.208 246.528C546.779 247.29 546.037 247.8 544.921 247.8 543.305 247.8 542.411 246.73 542.411 245.164ZM546.602 244.765 546.602 244.604C546.602 243.644 545.946 243.068 544.946 243.068 543.86 243.068 543.178 243.755 543.093 244.765L546.602 244.765Z" fill="#070052" fill-rule="nonzero" fill-opacity="1" transform="matrix(1.0018 0 0 1 291 59.1095)"></path><path d="M548.829 242.558 549.506 242.558 549.506 243.604C549.809 242.912 550.42 242.457 551.349 242.457 552.279 242.457 552.844 242.922 553.036 243.786 553.349 242.983 554.006 242.457 555.036 242.457 556.238 242.457 556.92 243.164 556.92 244.281L556.92 247.725 556.243 247.725 556.243 244.599C556.243 243.634 555.773 243.084 554.89 243.084 553.839 243.084 553.208 243.861 553.208 244.861L553.208 247.725 552.531 247.725 552.531 244.599C552.531 243.639 552.062 243.084 551.178 243.084 550.132 243.084 549.496 243.856 549.496 244.861L549.496 247.725 548.819 247.725 548.819 242.558 548.829 242.558Z" fill="#070052" fill-rule="nonzero" fill-opacity="1" transform="matrix(1.0018 0 0 1 291 59.1095)"></path><path d="M558.425 245.164C558.425 243.513 559.42 242.457 560.985 242.457 562.374 242.457 563.303 243.301 563.303 244.725L563.303 245.341 559.096 245.341C559.137 246.467 559.803 247.189 560.975 247.189 561.844 247.189 562.394 246.79 562.687 246.215L563.222 246.528C562.793 247.29 562.051 247.8 560.935 247.8 559.319 247.8 558.425 246.73 558.425 245.164ZM562.621 244.765 562.621 244.604C562.621 243.644 561.965 243.068 560.965 243.068 559.879 243.068 559.197 243.755 559.112 244.765L562.621 244.765Z" fill="#070052" fill-rule="nonzero" fill-opacity="1" transform="matrix(1.0018 0 0 1 291 59.1095)"></path><path d="M564.849 242.558 565.525 242.558 565.525 243.629C565.848 242.922 566.48 242.462 567.5 242.462 568.762 242.462 569.474 243.185 569.474 244.346L569.474 247.73 568.798 247.73 568.798 244.619C568.798 243.644 568.303 243.089 567.358 243.089 566.182 243.089 565.53 243.937 565.53 244.912L565.53 247.73 564.854 247.73 564.854 242.563 564.849 242.563Z" fill="#070052" fill-rule="nonzero" fill-opacity="1" transform="matrix(1.0018 0 0 1 291 59.1095)"></path><path d="M571.782 246.371 571.782 243.175 570.641 243.175 570.641 242.553 571.782 242.553 571.782 241.124 572.459 240.947 572.459 242.553 574.045 242.553 574.045 243.175 572.459 243.175 572.459 246.255C572.459 246.775 572.661 247.194 573.393 247.194 573.646 247.194 573.898 247.144 574.161 247.073L574.247 247.639C573.893 247.745 573.55 247.8 573.212 247.8 572.212 247.8 571.787 247.29 571.787 246.371L571.782 246.371Z" fill="#070052" fill-rule="nonzero" fill-opacity="1" transform="matrix(1.0018 0 0 1 291 59.1095)"></path><path d="M575.211 246.351 575.833 246.114C576.095 246.881 576.817 247.23 577.63 247.23 578.444 247.23 579.065 246.856 579.065 246.28 579.065 245.599 578.252 245.498 577.428 245.387 576.423 245.255 575.323 245.104 575.323 243.988 575.323 243.023 576.141 242.457 577.388 242.457 578.565 242.457 579.332 242.967 579.62 243.755L579.024 243.988C578.782 243.372 578.201 243.038 577.363 243.038 576.524 243.038 575.994 243.372 575.994 243.927 575.994 244.614 576.782 244.72 577.635 244.831 578.641 244.957 579.736 245.094 579.736 246.2 579.736 247.179 578.863 247.806 577.61 247.806 576.474 247.806 575.535 247.295 575.206 246.351L575.211 246.351Z" fill="#070052" fill-rule="nonzero" fill-opacity="1" transform="matrix(1.0018 0 0 1 291 59.1095)"></path><text fill="#070052" fill-opacity="1" font-family="Spezia Wide,Spezia Wide_MSFontService,sans-serif" font-style="normal" font-variant="normal" font-weight="700" font-stretch="semi-expanded" font-size="34" text-anchor="start" direction="ltr" writing-mode="lr-tb" unicode-bidi="normal" text-decoration="none" transform="matrix(0.505921 0 0 0.505014 674.817 420)">Desig</text><text fill="#070052" fill-opacity="1" font-family="Spezia Wide,Spezia Wide_MSFontService,sans-serif" font-style="normal" font-variant="normal" font-weight="700" font-stretch="semi-expanded" font-size="34" text-anchor="start" direction="ltr" writing-mode="lr-tb" unicode-bidi="normal" text-decoration="none" transform="matrix(0.505921 0 0 0.505014 726.795 420)">n</text><text fill="#070052" fill-opacity="1" font-family="Spezia Wide,Spezia Wide_MSFontService,sans-serif" font-style="normal" font-variant="normal" font-weight="400" font-stretch="semi-expanded" font-size="20" text-anchor="start" direction="ltr" writing-mode="lr-tb" unicode-bidi="normal" text-decoration="none" transform="matrix(0.505921 0 0 0.505014 655.506 437)">Conce</text><text fill="#070052" fill-opacity="1" font-family="Spezia Wide,Spezia Wide_MSFontService,sans-serif" font-style="normal" font-variant="normal" font-weight="400" font-stretch="semi-expanded" font-size="20" text-anchor="start" direction="ltr" writing-mode="lr-tb" unicode-bidi="normal" text-decoration="none" transform="matrix(0.505921 0 0 0.505014 688.092 437)">p</text><text fill="#070052" fill-opacity="1" font-family="Spezia Wide,Spezia Wide_MSFontService,sans-serif" font-style="normal" font-variant="normal" font-weight="400" font-stretch="semi-expanded" font-size="20" text-anchor="start" direction="ltr" writing-mode="lr-tb" unicode-bidi="normal" text-decoration="none" transform="matrix(0.505921 0 0 0.505014 694.73 437)">t</text><text fill="#070052" fill-opacity="1" font-family="Spezia Wide,Spezia Wide_MSFontService,sans-serif" font-style="normal" font-variant="normal" font-weight="400" font-stretch="semi-expanded" font-size="20" text-anchor="start" direction="ltr" writing-mode="lr-tb" unicode-bidi="normal" text-decoration="none" transform="matrix(0.505921 0 0 0.505014 701.626 437)">and</text><text fill="#070052" fill-opacity="1" font-family="Spezia Wide,Spezia Wide_MSFontService,sans-serif" font-style="normal" font-variant="normal" font-weight="400" font-stretch="semi-expanded" font-size="20" text-anchor="start" direction="ltr" writing-mode="lr-tb" unicode-bidi="normal" text-decoration="none" transform="matrix(0.505921 0 0 0.505014 723.578 437)">desig</text><text fill="#070052" fill-opacity="1" font-family="Spezia Wide,Spezia Wide_MSFontService,sans-serif" font-style="normal" font-variant="normal" font-weight="400" font-stretch="semi-expanded" font-size="20" text-anchor="start" direction="ltr" writing-mode="lr-tb" unicode-bidi="normal" text-decoration="none" transform="matrix(0.505921 0 0 0.505014 751.201 437)">n</text><text fill="#070052" fill-opacity="1" font-family="Spezia Wide,Spezia Wide_MSFontService,sans-serif" font-style="normal" font-variant="normal" font-weight="700" font-stretch="semi-expanded" font-size="34" text-anchor="start" direction="ltr" writing-mode="lr-tb" unicode-bidi="normal" text-decoration="none" transform="matrix(0.505921 0 0 0.505014 526.724 278)">E</text><text fill="#070052" fill-opacity="1" font-family="Spezia Wide,Spezia Wide_MSFontService,sans-serif" font-style="normal" font-variant="normal" font-weight="700" font-stretch="semi-expanded" font-size="34" text-anchor="start" direction="ltr" writing-mode="lr-tb" unicode-bidi="normal" text-decoration="none" transform="matrix(0.505921 0 0 0.505014 538.036 278)">valu</text><text fill="#070052" fill-opacity="1" font-family="Spezia Wide,Spezia Wide_MSFontService,sans-serif" font-style="normal" font-variant="normal" font-weight="700" font-stretch="semi-expanded" font-size="34" text-anchor="start" direction="ltr" writing-mode="lr-tb" unicode-bidi="normal" text-decoration="none" transform="matrix(0.505921 0 0 0.505014 576.577 278)">a</text><text fill="#070052" fill-opacity="1" font-family="Spezia Wide,Spezia Wide_MSFontService,sans-serif" font-style="normal" font-variant="normal" font-weight="700" font-stretch="semi-expanded" font-size="34" text-anchor="start" direction="ltr" writing-mode="lr-tb" unicode-bidi="normal" text-decoration="none" transform="matrix(0.505921 0 0 0.505014 587.444 278)">t</text><text fill="#070052" fill-opacity="1" font-family="Spezia Wide,Spezia Wide_MSFontService,sans-serif" font-style="normal" font-variant="normal" font-weight="700" font-stretch="semi-expanded" font-size="34" text-anchor="start" direction="ltr" writing-mode="lr-tb" unicode-bidi="normal" text-decoration="none" transform="matrix(0.505921 0 0 0.505014 595.387 278)">e</text><path d="M239.796 228.691 237.064 228.691 237.064 228.024 243.235 228.024 243.235 228.691 240.498 228.691 240.498 235.099 239.796 235.099 239.796 228.691Z" fill="#070052" fill-rule="nonzero" fill-opacity="1" transform="matrix(1.0018 0 0 1 291 59.1095)"></path><path d="M243.745 232.539C243.745 230.888 244.74 229.832 246.306 229.832 247.694 229.832 248.624 230.675 248.624 232.1L248.624 232.716 244.417 232.716C244.457 233.842 245.124 234.564 246.296 234.564 247.164 234.564 247.715 234.165 248.008 233.589L248.543 233.902C248.114 234.665 247.371 235.175 246.255 235.175 244.639 235.175 243.745 234.104 243.745 232.539ZM247.942 232.14 247.942 231.978C247.942 231.019 247.285 230.443 246.285 230.443 245.2 230.443 244.518 231.13 244.432 232.14L247.942 232.14Z" fill="#070052" fill-rule="nonzero" fill-opacity="1" transform="matrix(1.0018 0 0 1 291 59.1095)"></path><path d="M249.831 233.726 250.452 233.488C250.714 234.256 251.437 234.604 252.25 234.604 253.063 234.604 253.684 234.231 253.684 233.655 253.684 232.973 252.871 232.872 252.048 232.761 251.043 232.63 249.942 232.478 249.942 231.362 249.942 230.398 250.76 229.832 252.007 229.832 253.184 229.832 253.952 230.342 254.239 231.13L253.643 231.362C253.401 230.746 252.82 230.413 251.982 230.413 251.144 230.413 250.613 230.746 250.613 231.302 250.613 231.988 251.401 232.095 252.255 232.206 253.26 232.332 254.356 232.468 254.356 233.574 254.356 234.554 253.482 235.18 252.229 235.18 251.093 235.18 250.154 234.67 249.826 233.726Z" fill="#070052" fill-rule="nonzero" fill-opacity="1" transform="matrix(1.0018 0 0 1 291 59.1095)"></path><path d="M256.366 233.746 256.366 230.549 255.224 230.549 255.224 229.928 256.366 229.928 256.366 228.499 257.042 228.322 257.042 229.928 258.628 229.928 258.628 230.549 257.042 230.549 257.042 233.63C257.042 234.15 257.244 234.569 257.977 234.569 258.229 234.569 258.482 234.519 258.744 234.448L258.83 235.014C258.476 235.12 258.133 235.175 257.795 235.175 256.795 235.175 256.371 234.665 256.371 233.746L256.366 233.746Z" fill="#070052" fill-rule="nonzero" fill-opacity="1" transform="matrix(1.0018 0 0 1 291 59.1095)"></path><path d="M263.269 233.746 263.269 230.549 262.128 230.549 262.128 229.928 263.269 229.928 263.269 228.499 263.946 228.322 263.946 229.928 265.532 229.928 265.532 230.549 263.946 230.549 263.946 233.63C263.946 234.15 264.148 234.569 264.88 234.569 265.133 234.569 265.385 234.519 265.648 234.448L265.734 235.014C265.38 235.12 265.037 235.175 264.698 235.175 263.698 235.175 263.274 234.665 263.274 233.746L263.269 233.746Z" fill="#070052" fill-rule="nonzero" fill-opacity="1" transform="matrix(1.0018 0 0 1 291 59.1095)"></path><path d="M267.143 227.863 267.819 227.863 267.819 230.999C268.142 230.292 268.774 229.832 269.794 229.832 271.056 229.832 271.768 230.554 271.768 231.716L271.768 235.099 271.092 235.099 271.092 231.988C271.092 231.014 270.597 230.458 269.652 230.458 268.476 230.458 267.824 231.307 267.824 232.281L267.824 235.099 267.148 235.099 267.148 227.863 267.143 227.863Z" fill="#070052" fill-rule="nonzero" fill-opacity="1" transform="matrix(1.0018 0 0 1 291 59.1095)"></path><path d="M273.263 232.539C273.263 230.888 274.258 229.832 275.824 229.832 277.212 229.832 278.142 230.675 278.142 232.1L278.142 232.716 273.935 232.716C273.975 233.842 274.642 234.564 275.814 234.564 276.682 234.564 277.233 234.165 277.526 233.589L278.061 233.902C277.632 234.665 276.889 235.175 275.773 235.175 274.157 235.175 273.263 234.104 273.263 232.539ZM277.45 232.14 277.45 231.978C277.45 231.019 276.793 230.443 275.793 230.443 274.708 230.443 274.026 231.13 273.94 232.14L277.45 232.14Z" fill="#070052" fill-rule="nonzero" fill-opacity="1" transform="matrix(1.0018 0 0 1 291 59.1095)"></path><path d="M281.944 232.499C281.944 231.054 282.702 229.832 284.364 229.832 285.237 229.832 285.959 230.17 286.343 231.054L286.343 227.863 287.02 227.863 287.02 235.099 286.348 235.099 286.348 233.943C285.959 234.842 285.257 235.175 284.379 235.175 282.692 235.175 281.944 233.933 281.944 232.499ZM284.475 234.569C285.631 234.569 286.343 233.751 286.343 232.504 286.343 231.256 285.616 230.448 284.475 230.448 283.333 230.448 282.621 231.251 282.621 232.504 282.621 233.756 283.333 234.569 284.475 234.569Z" fill="#070052" fill-rule="nonzero" fill-opacity="1" transform="matrix(1.0018 0 0 1 291 59.1095)"></path><path d="M288.56 232.539C288.56 230.888 289.555 229.832 291.121 229.832 292.509 229.832 293.439 230.675 293.439 232.1L293.439 232.716 289.232 232.716C289.272 233.842 289.939 234.564 291.111 234.564 291.979 234.564 292.53 234.165 292.823 233.589L293.358 233.902C292.929 234.665 292.186 235.175 291.07 235.175 289.454 235.175 288.56 234.104 288.56 232.539ZM292.757 232.14 292.757 231.978C292.757 231.019 292.1 230.443 291.1 230.443 290.015 230.443 289.333 231.13 289.247 232.14L292.757 232.14Z" fill="#070052" fill-rule="nonzero" fill-opacity="1" transform="matrix(1.0018 0 0 1 291 59.1095)"></path><path d="M294.651 233.726 295.272 233.488C295.534 234.256 296.257 234.604 297.07 234.604 297.883 234.604 298.504 234.231 298.504 233.655 298.504 232.973 297.691 232.872 296.868 232.761 295.863 232.63 294.762 232.478 294.762 231.362 294.762 230.398 295.58 229.832 296.827 229.832 298.004 229.832 298.772 230.342 299.059 231.13L298.464 231.362C298.221 230.746 297.64 230.413 296.802 230.413 295.964 230.413 295.433 230.746 295.433 231.302 295.433 231.988 296.221 232.095 297.075 232.206 298.08 232.332 299.176 232.468 299.176 233.574 299.176 234.554 298.302 235.18 297.049 235.18 295.913 235.18 294.974 234.67 294.646 233.726L294.651 233.726Z" fill="#070052" fill-rule="nonzero" fill-opacity="1" transform="matrix(1.0018 0 0 1 291 59.1095)"></path><path d="M300.675 228.009 301.448 228.009 301.448 229.004 300.675 229.004 300.675 228.009ZM300.726 229.933 301.403 229.933 301.403 235.099 300.726 235.099 300.726 229.933Z" fill="#070052" fill-rule="nonzero" fill-opacity="1" transform="matrix(1.0018 0 0 1 291 59.1095)"></path><path d="M303.044 235.473 303.68 235.266C303.943 235.988 304.604 236.382 305.534 236.382 306.68 236.382 307.342 235.786 307.342 234.872L307.342 233.615C306.973 234.468 306.256 234.796 305.372 234.796 303.701 234.796 302.943 233.605 302.943 232.307 302.943 231.009 303.695 229.832 305.377 229.832 306.251 229.832 306.963 230.15 307.342 230.999L307.342 229.928 308.018 229.928 308.018 234.852C308.018 236.099 307.074 236.993 305.524 236.993 304.261 236.993 303.347 236.397 303.044 235.473ZM305.478 234.19C306.625 234.19 307.342 233.413 307.342 232.312 307.342 231.211 306.614 230.443 305.478 230.443 304.342 230.443 303.62 231.211 303.62 232.312 303.62 233.413 304.347 234.19 305.478 234.19Z" fill="#070052" fill-rule="nonzero" fill-opacity="1" transform="matrix(1.0018 0 0 1 291 59.1095)"></path><path d="M309.862 229.933 310.538 229.933 310.538 231.004C310.862 230.297 311.493 229.837 312.513 229.837 313.776 229.837 314.488 230.559 314.488 231.721L314.488 235.104 313.811 235.104 313.811 231.994C313.811 231.019 313.316 230.463 312.372 230.463 311.195 230.463 310.543 231.312 310.543 232.286L310.543 235.104 309.867 235.104 309.867 229.938Z" fill="#070052" fill-rule="nonzero" fill-opacity="1" transform="matrix(1.0018 0 0 1 291 59.1095)"></path><path d="M237.412 246.351 238.033 246.114C238.296 246.881 239.018 247.23 239.831 247.23 240.644 247.23 241.266 246.856 241.266 246.28 241.266 245.599 240.453 245.498 239.629 245.387 238.624 245.255 237.523 245.104 237.523 243.988 237.523 243.023 238.342 242.457 239.589 242.457 240.766 242.457 241.533 242.967 241.821 243.755L241.225 243.988C240.983 243.372 240.402 243.038 239.564 243.038 238.725 243.038 238.195 243.372 238.195 243.927 238.195 244.614 238.983 244.72 239.836 244.831 240.841 244.957 241.937 245.094 241.937 246.2 241.937 247.179 241.064 247.806 239.811 247.806 238.675 247.806 237.736 247.295 237.407 246.351Z" fill="#070052" fill-rule="nonzero" fill-opacity="1" transform="matrix(1.0018 0 0 1 291 59.1095)"></path><path d="M243.139 245.129C243.139 243.503 244.134 242.457 245.7 242.457 247.265 242.457 248.26 243.503 248.26 245.129 248.26 246.755 247.265 247.8 245.7 247.8 244.134 247.8 243.139 246.755 243.139 245.129ZM245.7 247.194C246.851 247.194 247.583 246.432 247.583 245.134 247.583 243.836 246.846 243.074 245.7 243.074 244.553 243.074 243.816 243.836 243.816 245.134 243.816 246.432 244.553 247.194 245.7 247.194Z" fill="#070052" fill-rule="nonzero" fill-opacity="1" transform="matrix(1.0018 0 0 1 291 59.1095)"></path><path d="M249.805 240.488 250.482 240.488 250.482 247.725 249.805 247.725 249.805 240.488Z" fill="#070052" fill-rule="nonzero" fill-opacity="1" transform="matrix(1.0018 0 0 1 291 59.1095)"></path><path d="M252.33 245.922 252.33 242.558 253.007 242.558 253.007 245.649C253.007 246.619 253.497 247.174 254.396 247.174 255.532 247.174 256.179 246.326 256.179 245.356L256.179 242.558 256.855 242.558 256.855 247.725 256.179 247.725 256.179 246.634C255.855 247.341 255.224 247.8 254.255 247.8 253.053 247.8 252.33 247.088 252.33 245.917Z" fill="#070052" fill-rule="nonzero" fill-opacity="1" transform="matrix(1.0018 0 0 1 291 59.1095)"></path><path d="M259.209 246.371 259.209 243.175 258.067 243.175 258.067 242.553 259.209 242.553 259.209 241.124 259.885 240.947 259.885 242.553 261.471 242.553 261.471 243.175 259.885 243.175 259.885 246.255C259.885 246.775 260.087 247.194 260.82 247.194 261.072 247.194 261.325 247.144 261.587 247.073L261.673 247.639C261.32 247.745 260.976 247.8 260.638 247.8 259.638 247.8 259.214 247.29 259.214 246.371L259.209 246.371Z" fill="#070052" fill-rule="nonzero" fill-opacity="1" transform="matrix(1.0018 0 0 1 291 59.1095)"></path><path d="M263.037 240.634 263.809 240.634 263.809 241.629 263.037 241.629 263.037 240.634ZM263.087 242.558 263.764 242.558 263.764 247.725 263.087 247.725 263.087 242.558Z" fill="#070052" fill-rule="nonzero" fill-opacity="1" transform="matrix(1.0018 0 0 1 291 59.1095)"></path><path d="M265.309 245.129C265.309 243.503 266.304 242.457 267.87 242.457 269.435 242.457 270.43 243.503 270.43 245.129 270.43 246.755 269.435 247.8 267.87 247.8 266.304 247.8 265.309 246.755 265.309 245.129ZM267.87 247.194C269.021 247.194 269.753 246.432 269.753 245.134 269.753 243.836 269.016 243.074 267.87 243.074 266.723 243.074 265.986 243.836 265.986 245.134 265.986 246.432 266.723 247.194 267.87 247.194Z" fill="#070052" fill-rule="nonzero" fill-opacity="1" transform="matrix(1.0018 0 0 1 291 59.1095)"></path><path d="M271.975 242.558 272.652 242.558 272.652 243.629C272.975 242.922 273.607 242.462 274.627 242.462 275.889 242.462 276.601 243.185 276.601 244.346L276.601 247.73 275.925 247.73 275.925 244.619C275.925 243.644 275.43 243.089 274.485 243.089 273.309 243.089 272.657 243.937 272.657 244.912L272.657 247.73 271.981 247.73 271.981 242.563Z" fill="#070052" fill-rule="nonzero" fill-opacity="1" transform="matrix(1.0018 0 0 1 291 59.1095)"></path><path d="M278.096 246.351 278.717 246.114C278.98 246.881 279.702 247.23 280.515 247.23 281.328 247.23 281.95 246.856 281.95 246.28 281.95 245.599 281.136 245.498 280.313 245.387 279.308 245.255 278.207 245.104 278.207 243.988 278.207 243.023 279.026 242.457 280.273 242.457 281.45 242.457 282.217 242.967 282.505 243.755L281.909 243.988C281.667 243.372 281.086 243.038 280.248 243.038 279.409 243.038 278.879 243.372 278.879 243.927 278.879 244.614 279.667 244.72 280.52 244.831 281.525 244.957 282.621 245.094 282.621 246.2 282.621 247.179 281.748 247.806 280.495 247.806 279.359 247.806 278.419 247.295 278.091 246.351L278.096 246.351Z" fill="#070052" fill-rule="nonzero" fill-opacity="1" transform="matrix(1.0018 0 0 1 291 59.1095)"></path><path d="M393.598 207.142C393.502 206.985 393.361 206.859 393.194 206.788 393.027 206.713 392.841 206.697 392.659 206.733 392.573 206.758 392.492 206.803 392.432 206.869 392.371 206.935 392.32 207.01 392.295 207.096 392.012 207.94 392.861 208.844 393.442 208.465 393.83 208.288 393.795 207.46 393.593 207.142L393.598 207.142Z" fill="#070052" fill-rule="nonzero" fill-opacity="1" transform="matrix(1.0018 0 0 1 291 59.1095)"></path><path d="M398.613 205.43C398.522 205.273 398.381 205.147 398.209 205.071 398.042 204.995 397.855 204.98 397.674 205.016 397.588 205.041 397.507 205.086 397.446 205.152 397.381 205.218 397.335 205.293 397.31 205.379 397.027 206.223 397.871 207.122 398.456 206.748 398.845 206.571 398.815 205.753 398.608 205.425L398.613 205.425Z" fill="#070052" fill-rule="nonzero" fill-opacity="1" transform="matrix(1.0018 0 0 1 291 59.1095)"></path><path d="M398.971 210.561C398.36 209.283 397.633 208.061 396.795 206.92 396.583 206.541 396.28 206.218 395.916 205.98 395.881 205.96 395.835 205.95 395.795 205.955 395.755 205.955 395.714 205.975 395.679 206 395.643 206.026 395.618 206.061 395.608 206.101 395.593 206.142 395.593 206.187 395.603 206.228 395.659 206.591 395.77 206.642 396.679 208.111 397.391 209.273 398.022 210.48 398.562 211.732L398.562 211.768C398.002 211.758 396.477 211.758 396.315 211.793 395.916 211.879 395.997 212.404 396.315 212.52 396.795 212.646 397.295 212.692 397.79 212.651 398.229 212.707 398.674 212.677 399.098 212.561 399.941 212.187 399.219 211.086 398.971 210.571L398.971 210.561Z" fill="#070052" fill-rule="nonzero" fill-opacity="1" transform="matrix(1.0018 0 0 1 291 59.1095)"></path><path d="M396.477 214.53C396.492 214.939 396.648 215.328 396.926 215.631 397.199 215.934 397.573 216.131 397.977 216.182 398.406 216.182 398.815 216.025 399.138 215.742 399.461 215.459 399.668 215.07 399.724 214.651 399.795 214.348 399.881 213.858 399.492 213.727 399.133 213.601 398.946 213.965 398.86 214.242 398.734 214.651 398.613 215.272 398.062 215.272 397.477 215.272 397.295 214.661 396.916 214.348 396.881 214.313 396.835 214.293 396.785 214.288 396.734 214.278 396.684 214.288 396.638 214.308 396.593 214.328 396.552 214.358 396.527 214.399 396.497 214.439 396.482 214.49 396.482 214.535L396.482 214.535Z" fill="#070052" fill-rule="nonzero" fill-opacity="1" transform="matrix(1.0018 0 0 1 291 59.1095)"></path><path d="M384.356 223.009C383.412 223.151 382.488 223.403 381.604 223.757 375.246 225.984 368.62 228.57 362.949 232.62 362.085 233.221 361.262 233.872 360.479 234.574 359.671 235.221 359.085 236.099 358.793 237.094 358.722 237.412 359.141 237.741 359.388 237.443 359.929 236.746 360.5 236.079 361.111 235.443 363.257 233.599 365.59 231.988 368.08 230.64 372.398 228.352 376.887 226.418 381.513 224.843 382.548 224.529 383.548 224.105 384.488 223.565 384.755 223.418 384.685 222.974 384.361 223.009L384.361 223.009Z" fill="#070052" fill-rule="nonzero" fill-opacity="1" transform="matrix(1.0018 0 0 1 291 59.1095)"></path><path d="M400.891 223.676C409.042 227.554 416.834 227.868 423.424 235.938 425.5 238.478 425.939 239.998 426.949 241.255 427.222 241.594 427.677 241.22 427.606 240.872 427.353 239.917 426.934 239.013 426.374 238.2 424.833 235.69 422.894 233.458 420.621 231.584 416.682 228.347 413.577 227.423 409.274 225.847 402.911 223.514 402.709 223.484 401.148 223.12 400.795 223.04 400.562 223.529 400.891 223.681L400.891 223.681Z" fill="#070052" fill-rule="nonzero" fill-opacity="1" transform="matrix(1.0018 0 0 1 291 59.1095)"></path><path d="M426.803 200.763C426.591 201.112 426.389 201.829 426.742 202.167 426.808 202.223 426.879 202.268 426.959 202.299 427.04 202.329 427.126 202.339 427.212 202.334 427.298 202.329 427.379 202.304 427.454 202.268 427.53 202.228 427.601 202.177 427.656 202.112 427.838 201.88 427.939 201.597 427.949 201.304 428.05 200.339 427.166 200.168 426.803 200.763Z" fill="#070052" fill-rule="nonzero" fill-opacity="1" transform="matrix(1.0018 0 0 1 291 59.1095)"></path><path d="M432.237 201.183C432.161 201.142 432.08 201.112 431.999 201.107 431.914 201.097 431.833 201.107 431.752 201.127 431.671 201.152 431.595 201.193 431.53 201.243 431.464 201.299 431.414 201.364 431.373 201.44 431.161 201.789 430.959 202.506 431.313 202.844 431.378 202.9 431.449 202.945 431.53 202.975 431.611 203.006 431.696 203.016 431.782 203.011 431.868 203.006 431.949 202.98 432.025 202.945 432.1 202.905 432.171 202.854 432.227 202.789 432.408 202.556 432.509 202.273 432.52 201.981 432.555 201.834 432.55 201.683 432.499 201.541 432.449 201.4 432.358 201.273 432.242 201.183L432.237 201.183Z" fill="#070052" fill-rule="nonzero" fill-opacity="1" transform="matrix(1.0018 0 0 1 291 59.1095)"></path><path d="M427.687 205.697C428.242 205.324 428.707 204.834 429.045 204.258 429.515 203.445 429.803 202.536 429.888 201.602 429.909 201.334 429.525 201.263 429.399 201.476 428.788 202.465 428.51 203.819 427.419 204.718 427.182 204.915 426.773 205.046 426.601 205.314 426.222 205.899 427.081 206.505 427.48 206.824 427.995 207.233 428.732 207.808 429.424 207.642 429.474 207.627 429.52 207.601 429.555 207.566 429.596 207.531 429.621 207.49 429.641 207.44 429.661 207.394 429.666 207.339 429.666 207.288 429.666 207.238 429.646 207.187 429.621 207.142 429.267 206.561 428.444 206.475 427.687 205.687L427.687 205.697Z" fill="#070052" fill-rule="nonzero" fill-opacity="1" transform="matrix(1.0018 0 0 1 291 59.1095)"></path><path d="M431.065 208.419C429.979 208.924 428.752 209.025 427.601 208.702 427.262 208.561 426.904 208.48 426.535 208.455 426.495 208.455 426.454 208.47 426.419 208.49 426.384 208.51 426.353 208.541 426.333 208.576 426.313 208.611 426.303 208.652 426.298 208.692 426.298 208.733 426.308 208.773 426.323 208.813 426.732 209.541 427.985 209.717 428.737 209.773 429.368 209.813 430.005 209.743 430.611 209.561 429.676 212.364 427.752 212.616 427.449 211.737 427.237 211.116 427.318 210.45 427.121 209.828 427.096 209.753 427.05 209.692 426.99 209.642 426.929 209.596 426.853 209.571 426.773 209.571 426.692 209.571 426.621 209.596 426.555 209.642 426.495 209.687 426.444 209.753 426.424 209.828 426.207 210.677 426.293 211.571 426.672 212.364 426.889 212.697 427.212 212.944 427.586 213.071 427.964 213.197 428.368 213.192 428.742 213.055 430.308 212.712 431.424 210.52 431.727 208.945 431.757 208.859 431.757 208.763 431.727 208.672 431.701 208.581 431.646 208.505 431.575 208.45 431.505 208.394 431.414 208.359 431.323 208.354 431.232 208.349 431.141 208.369 431.06 208.414L431.065 208.414Z" fill="#070052" fill-rule="nonzero" fill-opacity="1" transform="matrix(1.0018 0 0 1 291 59.1095)"></path><path d="M410.799 226.448C414.885 221.999 421.192 223.459 424.732 223.03 425.424 222.944 426.525 222.903 427.015 222.317 427.343 221.929 427.343 221.918 427.025 222.292 428.252 224.312 431.57 225.302 434.06 225.009 434.752 224.928 436.151 224.843 436.474 224.06 436.494 224.019 436.504 223.969 436.504 223.923 436.504 223.878 436.494 223.827 436.479 223.787 436.459 223.742 436.433 223.706 436.398 223.676 436.363 223.646 436.322 223.62 436.277 223.61 435.918 223.514 435.545 223.55 435.211 223.716 433.242 224.282 431.136 224.05 429.333 223.06 428.596 222.671 427.974 222.105 427.262 221.691 427.227 221.671 427.187 221.656 427.146 221.656 427.106 221.656 427.065 221.661 427.025 221.676 426.99 221.691 426.954 221.722 426.929 221.752 426.904 221.787 426.884 221.823 426.879 221.863 426.495 221.752 426.464 221.873 424.657 222.03 421.339 222.312 413.975 221.429 409.587 225.964" fill="#070052" fill-rule="nonzero" fill-opacity="1" transform="matrix(1.0018 0 0 1 291 59.1095)"></path><path d="M457.609 230.332C454.553 226.297 450.513 225.509 447.397 224.615 447.231 224.58 447.094 224.519 446.928 224.474 447.933 224.252 448.887 223.832 449.73 223.242 450.574 222.651 451.291 221.893 451.836 221.02 451.887 220.929 451.907 220.818 451.892 220.712 451.877 220.605 451.831 220.51 451.756 220.434 447.155 216.363 447.443 209.626 447.246 203.98 447.059 198.557 446.145 192.34 441.171 189.178 439.989 188.38 438.61 187.916 437.186 187.835 435.762 187.754 434.343 188.062 433.075 188.719 430.54 186.482 422.485 192.91 424.106 199.657 424.162 199.895 424.263 200.117 424.409 200.314 423.884 201.97 423.551 203.677 423.414 205.41 423.172 207.349 423.273 209.313 423.707 211.217 423.889 212.005 424.232 212.747 424.707 213.404 425.182 214.055 425.788 214.611 426.48 215.025 427.313 215.449 428.242 215.646 429.171 215.586 429.202 216.788 429.086 217.984 428.823 219.156 428.671 219.823 428.459 220.474 428.176 221.1 428.025 221.429 427.717 222.085 428.257 222.227 428.894 222.388 429.227 221.121 429.439 220.504 429.984 218.904 430.141 217.192 429.883 215.515 432.156 215.161 434.908 213.762 435.928 211.758 435.969 211.682 435.984 211.591 435.964 211.5 435.944 211.414 435.898 211.338 435.827 211.283 435.757 211.227 435.671 211.202 435.58 211.207 435.489 211.207 435.408 211.248 435.343 211.308 434.398 212.434 433.217 213.343 431.888 213.965 430.479 214.576 428.621 214.985 427.171 214.303 424.091 212.853 424.177 208.637 424.348 205.763 424.515 203.864 424.803 201.981 425.202 200.117 429.025 195.88 430.858 195.441 431.54 194.461 432.631 197.577 434.631 200.294 437.277 202.258 437.949 202.723 438.681 203.087 439.453 203.334 439.489 203.334 439.524 203.344 439.549 203.334 439.625 203.389 439.696 203.45 439.762 203.521 439.837 203.597 439.938 203.642 440.039 203.657 440.145 203.672 440.251 203.657 440.347 203.602 440.706 203.41 441.12 203.349 441.514 203.435 441.913 203.521 442.266 203.738 442.514 204.061 442.766 204.4 442.933 204.793 443.004 205.208 443.069 205.622 443.034 206.051 442.903 206.45 442.776 206.849 442.564 207.212 442.282 207.526 441.999 207.834 441.655 208.081 441.272 208.248 440.888 208.414 440.474 208.495 440.054 208.49 439.635 208.485 439.226 208.389 438.847 208.207 438.757 208.157 438.645 208.137 438.539 208.152 438.433 208.167 438.337 208.217 438.262 208.288 437.979 208.702 437.782 209.167 437.686 209.657 436.317 214.389 436.474 219.57 436.62 224.166 436.625 224.252 436.656 224.332 436.701 224.408 436.747 224.479 436.812 224.54 436.888 224.58 436.964 224.62 437.05 224.646 437.135 224.646 437.221 224.646 437.307 224.625 437.383 224.59 438.479 225.039 439.655 225.257 440.837 225.221 442.357 225.196 443.872 225.065 445.372 224.822 447.332 225.802 450.523 226.241 453.008 227.645 454.639 228.564 456.038 229.847 457.099 231.387 458.159 232.928 458.856 234.695 459.134 236.544 459.25 237.251 459.351 238.68 459.518 239.155 459.528 239.195 459.553 239.23 459.588 239.261 459.619 239.286 459.659 239.306 459.705 239.311 459.75 239.316 459.79 239.311 459.826 239.291 459.861 239.271 459.896 239.24 459.917 239.205 460.508 237.801 460.164 233.685 457.604 230.312L457.604 230.332 457.609 230.332ZM437.368 199.708C437.302 199.748 437.226 199.769 437.146 199.769 437.065 199.769 436.989 199.748 436.923 199.708 435.302 198.688 434.06 197.163 433.398 195.365 433.126 194.814 433.025 194.193 433.105 193.587 433.116 193.547 433.136 193.511 433.166 193.486 433.196 193.456 433.232 193.436 433.272 193.431 433.312 193.421 433.353 193.421 433.393 193.431 433.434 193.441 433.469 193.466 433.494 193.496 433.858 194.057 434.151 194.663 434.363 195.299 434.964 196.542 435.827 197.642 436.898 198.521 437.221 198.794 437.964 199.319 437.373 199.713L437.368 199.713ZM440.029 190.082C439.519 190.173 439.322 189.749 438.201 189.416 437.504 189.204 436.782 189.244 436.07 189.088 436.04 189.077 436.009 189.062 435.989 189.037 435.969 189.012 435.954 188.981 435.949 188.946 435.949 188.916 435.949 188.88 435.964 188.85 435.979 188.82 436.004 188.795 436.029 188.779 436.762 188.517 437.555 188.492 438.302 188.709 438.863 188.835 440.049 189.128 440.186 189.8 440.196 189.926 440.14 190.067 440.019 190.082L440.029 190.082Z" fill="#070052" fill-rule="nonzero" fill-opacity="1" transform="matrix(1.0018 0 0 1 291 59.1095)"></path><path d="M404.032 194.436C404.436 192.188 404.512 189.658 403.34 187.608 402.88 186.744 402.178 186.027 401.325 185.547 400.471 185.068 399.492 184.85 398.517 184.911 396.411 185.174 395.022 186.886 393.351 188.012 389.149 190.865 384.225 189.855 381.23 193.41 377.912 197.339 378.549 202.93 380.599 207.298 379.796 207.657 379.14 208.273 378.725 209.046 378.433 209.616 378.291 210.253 378.306 210.894 378.321 211.535 378.498 212.162 378.821 212.717 379.19 213.323 379.705 213.828 380.311 214.192 380.917 214.555 381.609 214.767 382.316 214.813 383.059 214.929 383.816 214.848 384.518 214.581 385.483 217.08 385.841 219.777 385.558 222.444 385.528 222.651 385.518 222.868 385.533 223.075 385.452 222.994 385.371 222.923 385.286 222.838 385.245 222.797 385.19 222.772 385.134 222.767 385.079 222.762 385.018 222.772 384.967 222.802 384.917 222.833 384.877 222.873 384.856 222.929 384.831 222.979 384.826 223.04 384.841 223.095 385.235 224.534 386.73 225.449 388.038 225.964 390.856 227.019 393.952 227.06 396.8 226.08 398.128 225.62 399.795 224.918 400.618 223.737 400.885 223.348 400.386 222.999 400.032 223.151 399.653 223.327 399.295 223.54 398.956 223.782 398.931 223.151 398.32 222.939 398.209 220.494 398.194 220.156 398.244 219.802 398.209 219.474 398.956 219.378 399.673 219.141 400.33 218.777 401.077 218.287 401.699 217.631 402.148 216.863 402.598 216.096 402.86 215.227 402.921 214.338 403.017 212.091 402.688 209.849 401.956 207.723 401.345 205.41 400.492 203.162 399.416 201.026 401.981 199.38 403.476 197.592 404.042 194.436L404.032 194.436ZM401.951 212.525C402.082 213.384 402.022 214.262 401.784 215.101 401.547 215.939 401.133 216.712 400.567 217.373 399.325 218.626 397.31 218.696 395.648 218.555 393.866 218.424 392.184 217.707 390.861 216.505 390.81 216.459 390.745 216.429 390.674 216.429 390.603 216.429 390.538 216.449 390.482 216.49 390.427 216.53 390.391 216.591 390.376 216.656 390.361 216.722 390.371 216.793 390.401 216.853 390.8 217.611 391.427 218.222 392.194 218.611 393.83 219.383 395.638 219.722 397.441 219.58 397.148 220.828 397.244 222.136 397.709 223.327 397.845 223.666 397.956 224.055 398.27 224.226 396.81 225.039 395.194 225.529 393.533 225.671 391.871 225.812 390.194 225.595 388.619 225.034 387.695 224.681 386.831 224.176 386.078 223.535 386.69 223.125 386.659 222.06 386.72 221.403 386.993 218.611 386.114 215.242 385.316 214.131 385.493 214.02 385.639 213.864 385.74 213.682 385.846 213.5 385.902 213.298 385.912 213.086 385.912 213.01 385.892 212.934 385.851 212.869 385.811 212.803 385.755 212.747 385.69 212.712 385.624 212.672 385.548 212.657 385.472 212.657 385.397 212.657 385.321 212.677 385.255 212.717 384.543 213.055 384.366 214.015 382.306 213.687 381.786 213.646 381.281 213.48 380.836 213.207 380.392 212.929 380.018 212.556 379.751 212.106 379.539 211.717 379.417 211.283 379.407 210.844 379.392 210.399 379.483 209.96 379.67 209.561 379.857 209.162 380.134 208.808 380.483 208.536 380.831 208.263 381.24 208.076 381.675 207.99 382.437 207.773 383.25 207.818 383.988 208.127 384.72 208.43 385.331 208.975 385.715 209.667 385.983 210.162 386.876 209.96 386.816 209.374 386.589 207.167 386.917 204.935 387.775 202.884 392.608 203.92 395.82 203.193 398.805 201.435 399.168 202.496 401.613 208.359 401.941 212.525L401.951 212.525ZM400.072 196.168C401.067 194.744 401.618 193.057 401.663 191.32 401.683 190.779 401.593 190.244 401.618 189.704 401.618 189.643 401.638 189.582 401.673 189.532 401.709 189.481 401.759 189.441 401.815 189.416 401.87 189.391 401.936 189.385 401.997 189.396 402.057 189.406 402.113 189.436 402.158 189.476 403.052 190.32 402.769 192.032 402.613 193.128 402.441 194.456 401.941 195.718 401.148 196.794 400.673 197.415 399.593 196.794 400.072 196.158L400.072 196.168Z" fill="#070052" fill-rule="nonzero" fill-opacity="1" transform="matrix(1.0018 0 0 1 291 59.1095)"></path><text fill="#000000" fill-opacity="1" font-family="Spezia Wide,Spezia Wide_MSFontService,sans-serif" font-style="normal" font-variant="normal" font-weight="700" font-stretch="semi-expanded" font-size="21" text-anchor="start" direction="ltr" writing-mode="lr-tb" unicode-bidi="normal" text-decoration="none" transform="matrix(0.505921 0 0 0.505014 656.67 322)">I</text><text fill="#000000" fill-opacity="1" font-family="Spezia Wide,Spezia Wide_MSFontService,sans-serif" font-style="normal" font-variant="normal" font-weight="700" font-stretch="semi-expanded" font-size="21" text-anchor="start" direction="ltr" writing-mode="lr-tb" unicode-bidi="normal" text-decoration="none" transform="matrix(0.505921 0 0 0.505014 660.16 322)">t</text><text fill="#000000" fill-opacity="1" font-family="Spezia Wide,Spezia Wide_MSFontService,sans-serif" font-style="normal" font-variant="normal" font-weight="700" font-stretch="semi-expanded" font-size="21" text-anchor="start" direction="ltr" writing-mode="lr-tb" unicode-bidi="normal" text-decoration="none" transform="matrix(0.505921 0 0 0.505014 665.063 322)">e</text><text fill="#000000" fill-opacity="1" font-family="Spezia Wide,Spezia Wide_MSFontService,sans-serif" font-style="normal" font-variant="normal" font-weight="700" font-stretch="semi-expanded" font-size="21" text-anchor="start" direction="ltr" writing-mode="lr-tb" unicode-bidi="normal" text-decoration="none" transform="matrix(0.505921 0 0 0.505014 671.726 322)">r</text><text fill="#000000" fill-opacity="1" font-family="Spezia Wide,Spezia Wide_MSFontService,sans-serif" font-style="normal" font-variant="normal" font-weight="700" font-stretch="semi-expanded" font-size="21" text-anchor="start" direction="ltr" writing-mode="lr-tb" unicode-bidi="normal" text-decoration="none" transform="matrix(0.505921 0 0 0.505014 676.486 322)">ati</text><text fill="#000000" fill-opacity="1" font-family="Spezia Wide,Spezia Wide_MSFontService,sans-serif" font-style="normal" font-variant="normal" font-weight="700" font-stretch="semi-expanded" font-size="21" text-anchor="start" direction="ltr" writing-mode="lr-tb" unicode-bidi="normal" text-decoration="none" transform="matrix(0.505921 0 0 0.505014 691.447 322)">v</text><text fill="#000000" fill-opacity="1" font-family="Spezia Wide,Spezia Wide_MSFontService,sans-serif" font-style="normal" font-variant="normal" font-weight="700" font-stretch="semi-expanded" font-size="21" text-anchor="start" direction="ltr" writing-mode="lr-tb" unicode-bidi="normal" text-decoration="none" transform="matrix(0.505921 0 0 0.505014 698.135 322)">e</text><text fill="#000000" fill-opacity="1" font-family="Spezia Wide,Spezia Wide_MSFontService,sans-serif" font-style="normal" font-variant="normal" font-weight="700" font-stretch="semi-expanded" font-size="21" text-anchor="start" direction="ltr" writing-mode="lr-tb" unicode-bidi="normal" text-decoration="none" transform="matrix(0.505921 0 0 0.505014 707.434 322)">p</text><text fill="#000000" fill-opacity="1" font-family="Spezia Wide,Spezia Wide_MSFontService,sans-serif" font-style="normal" font-variant="normal" font-weight="700" font-stretch="semi-expanded" font-size="21" text-anchor="start" direction="ltr" writing-mode="lr-tb" unicode-bidi="normal" text-decoration="none" transform="matrix(0.505921 0 0 0.505014 714.754 322)">r</text><text fill="#000000" fill-opacity="1" font-family="Spezia Wide,Spezia Wide_MSFontService,sans-serif" font-style="normal" font-variant="normal" font-weight="700" font-stretch="semi-expanded" font-size="21" text-anchor="start" direction="ltr" writing-mode="lr-tb" unicode-bidi="normal" text-decoration="none" transform="matrix(0.505921 0 0 0.505014 719.454 322)">oce</text><text fill="#000000" fill-opacity="1" font-family="Spezia Wide,Spezia Wide_MSFontService,sans-serif" font-style="normal" font-variant="normal" font-weight="700" font-stretch="semi-expanded" font-size="21" text-anchor="start" direction="ltr" writing-mode="lr-tb" unicode-bidi="normal" text-decoration="none" transform="matrix(0.505921 0 0 0.505014 739.494 322)">s</text><text fill="#000000" fill-opacity="1" font-family="Spezia Wide,Spezia Wide_MSFontService,sans-serif" font-style="normal" font-variant="normal" font-weight="700" font-stretch="semi-expanded" font-size="21" text-anchor="start" direction="ltr" writing-mode="lr-tb" unicode-bidi="normal" text-decoration="none" transform="matrix(0.505921 0 0 0.505014 745.924 322)">s</text><path d="M201.369 270.814C188.855 212.707 201.531 151.57 236.791 102.23" stroke="#C5FE4A" stroke-width="3.03009" stroke-linecap="butt" stroke-linejoin="miter" stroke-miterlimit="10" stroke-opacity="1" fill="none" fill-rule="nonzero" transform="matrix(1.0018 0 0 1 291 59.1095)"></path><path d="M241.25 117.598 238.246 118.022 236.175 103.23 221.57 106.376 220.929 103.412 238.72 99.5787 241.25 117.598Z" fill="#C5FE4A" fill-rule="nonzero" fill-opacity="1" transform="matrix(1.0018 0 0 1 291 59.1095)"></path><path d="M618.506 261.976C608.81 318.215 576.903 367.711 531.336 400.012" stroke="#C5FE4A" stroke-width="3.03009" stroke-linecap="butt" stroke-linejoin="miter" stroke-miterlimit="10" stroke-opacity="1" fill="none" fill-rule="nonzero" transform="matrix(1.0018 0 0 1 291 59.1095)"></path><path d="M532.144 384.038 535.118 384.614 532.235 399.275 547.072 401.077 546.698 404.087 528.639 401.89 532.144 384.038Z" fill="#C5FE4A" fill-rule="nonzero" fill-opacity="1" transform="matrix(1.0018 0 0 1 291 59.1095)"></path><path d="M353.949 431.722C298.347 416.016 251.694 378.554 223.666 329.077" stroke="#C5FE4A" stroke-width="3.03009" stroke-linecap="butt" stroke-linejoin="miter" stroke-miterlimit="10" stroke-opacity="1" fill="none" fill-rule="nonzero" transform="matrix(1.0018 0 0 1 291 59.1095)"></path><path d="M239.655 331.572 238.781 334.517 224.322 330.062 221.06 344.884 218.07 344.188 222.045 326.153 239.655 331.572Z" fill="#C5FE4A" fill-rule="nonzero" fill-opacity="1" transform="matrix(1.0018 0 0 1 291 59.1095)"></path><path d="M170.75 14.2414C170.75 14.2414 370.817 12.7617 417.798 14.2566 474.522 16.0595 528.881 42.3657 567.459 85.9383" stroke="#C5FE4A" stroke-width="3.03009" stroke-linecap="butt" stroke-linejoin="miter" stroke-miterlimit="10" stroke-opacity="1" fill="none" fill-rule="nonzero" transform="matrix(1.0018 0 0 1 291 59.1095)"></path><path d="M551.486 86.8423 551.748 83.8223 566.631 85.1151 566.843 70.1768 569.873 70.2172 569.621 88.4179 551.486 86.8423Z" fill="#C5FE4A" fill-rule="nonzero" fill-opacity="1" transform="matrix(1.0018 0 0 1 291 59.1095)"></path></g></g></g></g></g></svg>