<?xml version="1.0"?>


<svg xmlns:svg="http://www.w3.org/2000/svg" xmlns="http://www.w3.org/2000/svg" id="svg593" version="1.1" width="1024" height="272" viewBox="-0.57628017 -0.57628017 76.74322834 20.36189934">
  <defs id="defs590"></defs>
  <path id="path48" style="fill:#003d6a;fill-opacity:1;fill-rule:nonzero;stroke:none;stroke-width:1.33333325" d="m 65.99733,19.20667 c 5.29867,0 9.59334,-4.29467 9.59334,-9.59333 C 75.59067,4.31467 71.296,0.02 65.99733,0.02 60.69867,0.02 14.08533,0 9.60133,0 4.29867,0 0,4.29467 0,9.59334 c 0,5.29866 4.29867,9.616 9.60133,9.616 4.488,0 51.09734,-0.003 56.396,-0.003"></path>
  <path id="path52" d="m 13.61657,6.88687 c -1.53733,0 -2.04492,1.0627 -2.04492,1.832 0,1.788 2.15625,1.8758 2.15625,2.5372 0,0.2413 -0.20284,0.4218 -0.57617,0.4218 -0.484,0 -1.02008,-0.2067 -1.58008,-0.6093 v 1.6543 c 0.58666,0.2866 1.25724,0.4199 2.0039,0.4199 1.512,0 2.09766,-0.9398 2.09766,-1.8145 0,-1.7346 -2.23438,-1.814 -2.23438,-2.5566 0,-0.2587 0.22055,-0.4199 0.56055,-0.4199 0.43333,0 0.88398,0.2495 1.44531,0.7949 v -1.6074 c -0.57866,-0.456 -1.14012,-0.6524 -1.82812,-0.6524 z m 6.09375,0 c -2.124,0 -3.35547,1.3756 -3.35547,3.1543 0,1.3947 0.83195,3.1016 3.25195,3.1016 0.79867,0 1.55554,-0.1798 2.15821,-0.5371 v -1.627 c -0.65467,0.384 -1.13013,0.5371 -1.7168,0.5371 -1.01867,0 -1.66406,-0.5899 -1.66406,-1.5019 0,-0.9294 0.62843,-1.5 1.64843,-1.5 0.58534,0 1.09498,0.1691 1.68165,0.5625 v -1.7793 c -0.56134,-0.268 -1.23991,-0.4102 -2.00391,-0.4102 z m 2.92383,0.08 v 6.0957 h 2.02929 v -2.3066 h 2.23438 v 2.3066 h 2.0293 v -6.0957 h -2.0293 v 2.2148 h -2.23438 v -2.2148 z m 7.13672,0 v 3.5215 c 0,1.6613 1.12924,2.6543 3.14257,2.6543 2.012,0 3.06641,-1.0909 3.06641,-2.8789 v -3.2969 h -2.0293 v 3.1465 c 0,0.9653 -0.46789,1.375 -1.08789,1.375 -0.628,0 -1.0625,-0.4109 -1.0625,-1.2696 v -3.2519 z m 7.10546,0 v 6.0957 h 1.94532 v -3.1289 l 2.92968,3.1289 h 1.73243 V 6.96687 H 41.5404 v 3.1269 l -2.92969,-3.1269 z m 7.51758,0 v 6.0957 h 2.0293 v -2.8516 h 0.0176 l 2.09765,2.8516 h 2.41993 l -2.44532,-3.2637 2.36133,-2.832 h -2.13281 l -2.31836,2.7617 v -2.7617 z" style="fill:#ffffff;fill-opacity:1;fill-rule:nonzero;stroke:none;stroke-width:1.33333325"></path>
  <path id="path76" d="m 63.99743,1.81267 -4.10547,2.1719 c -0.55867,-0.1694 -1.13299,-0.2559 -1.70899,-0.2559 -3.24533,0 -5.88476,2.6426 -5.88476,5.8906 0,0.8414 0.17429,1.6521 0.51562,2.4121 l 3.1875,-1.6992 c -0.0773,-0.2346 -0.11914,-0.4785 -0.11914,-0.7265 0,-1.272 1.03402,-2.3086 2.30469,-2.3086 0.712,0 1.38627,0.3357 1.82227,0.8984 l 3.98632,-2.125 z m -0.43555,5.3672 -3.1875,1.6992 c 0.076,0.232 0.11719,0.474 0.11719,0.7207 0,1.2707 -1.03269,2.3047 -2.30469,2.3047 -0.708,0 -1.38174,-0.332 -1.81641,-0.8906 l -3.98632,2.1269 v 4.2637 l 4.10351,-2.1738 c 0.55867,0.1693 1.13237,0.2558 1.70703,0.2558 3.24534,0 5.88672,-2.6426 5.88672,-5.8906 0,-0.8427 -0.17553,-1.6547 -0.51953,-2.416 z" style="fill:#009ee0;fill-opacity:1;fill-rule:nonzero;stroke:none;stroke-width:1.33333325"></path>
  <path id="path80" style="fill:#ffffff;fill-opacity:1;fill-rule:nonzero;stroke:none;stroke-width:1.33333325" d="m 58.17827,8.06697 c -0.85466,0 -1.54933,0.69467 -1.54933,1.54933 0,0.85334 0.69467,1.548 1.54933,1.548 0.85467,0 1.548,-0.69466 1.548,-1.548 0,-0.85466 -0.69333,-1.54933 -1.548,-1.54933"></path>
</svg>