<svg width="147" height="24" viewBox="0 0 147 24" fill="none" xmlns="http://www.w3.org/2000/svg">
<rect width="147" height="24" fill="white"/>
<path d="M30 5.96084H32.7979V20.5822H30V5.96084ZM32.7979 12.906L32.4056 10.7389C32.4056 10.2863 32.4579 9.76414 32.5625 9.17232C32.6846 8.5805 32.9199 8.0148 33.2685 7.4752C33.6346 6.91819 34.1663 6.45692 34.8636 6.09138C35.5783 5.72585 36.5196 5.54308 37.6876 5.54308V8.36292C36.6591 8.36292 35.7788 8.50218 35.0466 8.78068C34.3145 9.05918 33.7566 9.52916 33.3731 10.1906C32.9896 10.8346 32.7979 11.7398 32.7979 12.906Z" fill="black"/>
<path d="M43.4155 14.2115V11.8616H53.0119L51.8614 12.671C51.8962 11.8355 51.7655 11.0783 51.4691 10.3995C51.1902 9.70322 50.7544 9.14621 50.1617 8.72846C49.569 8.3107 48.8195 8.10183 47.913 8.10183C46.6404 8.10183 45.5858 8.49347 44.749 9.27676C43.9297 10.0426 43.4852 11.1131 43.4155 12.4883H40.4607C40.5828 11.0435 40.975 9.80766 41.6374 8.78068C42.3173 7.73629 43.1976 6.9356 44.2784 6.37859C45.3592 5.82158 46.5707 5.54308 47.913 5.54308C48.9066 5.54308 49.8392 5.73455 50.7108 6.11749C51.5825 6.50044 52.332 7.06614 52.9596 7.81462C53.5872 8.5631 54.0491 9.47694 54.3454 10.5561C54.6592 11.6179 54.7464 12.8364 54.6069 14.2115H43.4155ZM47.913 21C46.5184 21 45.2807 20.7128 44.1999 20.1384C43.1366 19.564 42.2824 18.772 41.6374 17.7624C40.9924 16.7354 40.6089 15.5518 40.4869 14.2115H43.4155C43.5549 15.4648 43.9907 16.483 44.7229 17.2663C45.4725 18.0496 46.5358 18.4413 47.913 18.4413C48.9415 18.4413 49.7521 18.2063 50.3448 17.7363C50.9549 17.2489 51.382 16.6571 51.626 15.9608H54.6069C54.3629 16.9704 53.9445 17.8494 53.3518 18.5979C52.7591 19.3464 52.0008 19.9382 51.0769 20.3734C50.153 20.7911 49.0984 21 47.913 21Z" fill="black"/>
<path d="M59.6696 5.96084H62.4936V20.5822H59.6696V5.96084Z" fill="black"/>
<path d="M81.0152 14.4465C80.9629 15.6997 80.6492 16.8225 80.0739 17.8146C79.5161 18.8068 78.7316 19.5901 77.7206 20.1645C76.7095 20.7215 75.5154 21 74.1383 21C72.6217 21 71.3055 20.678 70.1899 20.0339C69.0742 19.3725 68.2026 18.4587 67.575 17.2924C66.9649 16.1262 66.6599 14.7946 66.6599 13.2976C66.6599 11.7833 66.9649 10.443 67.575 9.27676C68.2026 8.11053 69.0742 7.19669 70.1899 6.53525C71.3055 5.8738 72.6217 5.54308 74.1383 5.54308C75.4631 5.54308 76.6311 5.83899 77.6421 6.43081C78.6532 7.00522 79.4464 7.7624 80.0216 8.70235C80.5969 9.62489 80.9106 10.6258 80.9629 11.705H77.982C77.9472 11.0957 77.7903 10.5213 77.5114 9.98172C77.2325 9.44212 76.8141 8.99826 76.2563 8.65013C75.7159 8.302 75.0099 8.12794 74.1383 8.12794C73.1098 8.12794 72.2556 8.35422 71.5757 8.80679C70.8959 9.24195 70.3816 9.85118 70.033 10.6345C69.7018 11.4178 69.5362 12.3055 69.5362 13.2976C69.5362 14.2724 69.7018 15.1514 70.033 15.9347C70.3816 16.7006 70.8959 17.3098 71.5757 17.7624C72.2556 18.1976 73.1098 18.4151 74.1383 18.4151C75.0447 18.4151 75.7769 18.2324 76.3347 17.8668C76.91 17.4839 77.3371 16.9965 77.616 16.4047C77.8949 15.7955 78.0518 15.1427 78.0866 14.4465H81.0152Z" fill="black"/>
<path d="M85.9146 1H88.7124V20.5822H85.9146V1ZM88.7124 13.2976L88.294 10.4256C88.294 9.97302 88.3725 9.46823 88.5294 8.91123C88.6863 8.35422 88.9565 7.82332 89.34 7.31854C89.7409 6.79634 90.2813 6.36989 90.9612 6.03916C91.641 5.70844 92.5039 5.54308 93.5499 5.54308C94.4912 5.54308 95.3279 5.73455 96.0601 6.11749C96.8097 6.50044 97.3936 7.13577 97.812 8.0235C98.2478 8.89382 98.4657 10.0775 98.4657 11.5744V20.5822H95.6679V11.9138C95.6679 11.1131 95.5894 10.4256 95.4325 9.85118C95.2756 9.25936 94.988 8.80679 94.5696 8.49347C94.1513 8.16275 93.5673 7.99739 92.8177 7.99739C92.1204 7.99739 91.458 8.19756 90.8304 8.59791C90.2029 8.99826 89.6886 9.59008 89.2877 10.3734C88.9042 11.1567 88.7124 12.1314 88.7124 13.2976Z" fill="black"/>
<path d="M108.458 21C107.499 21 106.636 20.8259 105.869 20.4778C105.102 20.1123 104.492 19.5901 104.039 18.9112C103.603 18.2324 103.385 17.4056 103.385 16.4308C103.385 15.282 103.664 14.3768 104.222 13.7154C104.779 13.054 105.52 12.5666 106.444 12.2533C107.368 11.9399 108.37 11.7398 109.451 11.6527C110.549 11.5483 111.63 11.5048 112.694 11.5222V13.846C110.515 13.7763 108.911 13.9591 107.882 14.3943C106.854 14.812 106.34 15.456 106.34 16.3264C106.34 17.0748 106.575 17.6319 107.046 17.9974C107.534 18.3455 108.205 18.5196 109.059 18.5196C109.756 18.5196 110.375 18.3803 110.916 18.1018C111.473 17.8059 111.909 17.3795 112.223 16.8225C112.537 16.2654 112.694 15.5953 112.694 14.812V13.0627H115.492V20.5822H112.694V18.9634C112.258 19.6075 111.683 20.1123 110.968 20.4778C110.253 20.8259 109.416 21 108.458 21ZM103.045 11.3655C103.045 10.3734 103.289 9.43342 103.777 8.54569C104.265 7.65796 104.989 6.9356 105.947 6.37859C106.906 5.82158 108.065 5.54308 109.425 5.54308C111.308 5.54308 112.755 6.08268 113.766 7.16188C114.777 8.22367 115.343 9.67711 115.465 11.5222H112.694C112.624 10.4604 112.336 9.63359 111.831 9.04178C111.343 8.43255 110.541 8.12794 109.425 8.12794C108.588 8.12794 107.917 8.27589 107.412 8.5718C106.924 8.86771 106.566 9.26806 106.34 9.77285C106.113 10.2602 106 10.7911 106 11.3655H103.045Z" fill="black"/>
<path d="M120.343 5.96084H123.141V20.5822H120.343V5.96084ZM123.141 12.906L122.749 10.7389C122.749 10.2863 122.801 9.76414 122.906 9.17232C123.028 8.5805 123.263 8.0148 123.612 7.4752C123.978 6.91819 124.51 6.45692 125.207 6.09138C125.922 5.72585 126.863 5.54308 128.031 5.54308V8.36292C127.002 8.36292 126.122 8.50218 125.39 8.78068C124.658 9.05918 124.1 9.52916 123.716 10.1906C123.333 10.8346 123.141 11.7398 123.141 12.906Z" fill="black"/>
<path d="M137.495 21C136.153 21 134.985 20.678 133.992 20.0339C133.015 19.3725 132.257 18.4587 131.717 17.2924C131.176 16.1262 130.906 14.7946 130.906 13.2976C130.906 11.7833 131.176 10.443 131.717 9.27676C132.257 8.11053 133.015 7.19669 133.992 6.53525C134.985 5.8738 136.153 5.54308 137.495 5.54308C138.611 5.54308 139.561 5.77807 140.346 6.24804C141.13 6.71802 141.749 7.37076 142.202 8.20627V18.3629C141.766 19.1636 141.165 19.8077 140.398 20.295C139.631 20.765 138.663 21 137.495 21ZM137.862 18.4413C138.838 18.4413 139.64 18.2237 140.267 17.7885C140.912 17.3359 141.392 16.718 141.705 15.9347C142.037 15.1514 142.202 14.2724 142.202 13.2976C142.202 12.3055 142.037 11.4178 141.705 10.6345C141.392 9.85118 140.912 9.23325 140.267 8.78068C139.64 8.32811 138.838 8.10183 137.862 8.10183C137.025 8.10183 136.301 8.31941 135.691 8.75457C135.081 9.17232 134.61 9.77285 134.279 10.5561C133.948 11.3394 133.782 12.2533 133.782 13.2976C133.782 14.3246 133.948 15.2298 134.279 16.0131C134.61 16.7789 135.081 17.3795 135.691 17.8146C136.301 18.2324 137.025 18.4413 137.862 18.4413ZM142.202 20.5822V1H145V20.5822H142.202Z" fill="black"/>
<g clip-path="url(#paint0_diamond_1_56_clip_path)" data-figma-skip-parse="true"><g transform="matrix(1.10827e-10 0.021 -0.021 1.10827e-10 6 19.5)"><rect x="0" y="0" width="976.19" height="904.762" fill="url(#paint0_diamond_1_56)" opacity="1" shape-rendering="crispEdges"/><rect x="0" y="0" width="976.19" height="904.762" transform="scale(1 -1)" fill="url(#paint0_diamond_1_56)" opacity="1" shape-rendering="crispEdges"/><rect x="0" y="0" width="976.19" height="904.762" transform="scale(-1 1)" fill="url(#paint0_diamond_1_56)" opacity="1" shape-rendering="crispEdges"/><rect x="0" y="0" width="976.19" height="904.762" transform="scale(-1)" fill="url(#paint0_diamond_1_56)" opacity="1" shape-rendering="crispEdges"/></g></g><rect width="24" height="24" rx="2" data-figma-gradient-fill="{&#34;type&#34;:&#34;GRADIENT_DIAMOND&#34;,&#34;stops&#34;:[{&#34;color&#34;:{&#34;r&#34;:0.20661808550357819,&#34;g&#34;:0.43140965700149536,&#34;b&#34;:1.0,&#34;a&#34;:1.0},&#34;position&#34;:0.0},{&#34;color&#34;:{&#34;r&#34;:0.32666054368019104,&#34;g&#34;:0.47521832585334778,&#34;b&#34;:0.86806213855743408,&#34;a&#34;:1.0},&#34;position&#34;:0.33653846383094788},{&#34;color&#34;:{&#34;r&#34;:0.14001515507698059,&#34;g&#34;:0.29475009441375732,&#34;b&#34;:0.72027117013931274,&#34;a&#34;:1.0},&#34;position&#34;:1.0}],&#34;stopsVar&#34;:[{&#34;color&#34;:{&#34;r&#34;:0.20661808550357819,&#34;g&#34;:0.43140965700149536,&#34;b&#34;:1.0,&#34;a&#34;:1.0},&#34;position&#34;:0.0},{&#34;color&#34;:{&#34;r&#34;:0.32666054368019104,&#34;g&#34;:0.47521832585334778,&#34;b&#34;:0.86806213855743408,&#34;a&#34;:1.0},&#34;position&#34;:0.33653846383094788},{&#34;color&#34;:{&#34;r&#34;:0.14001515507698059,&#34;g&#34;:0.29475009441375732,&#34;b&#34;:0.72027117013931274,&#34;a&#34;:1.0},&#34;position&#34;:1.0}],&#34;transform&#34;:{&#34;m00&#34;:2.2165457380651787e-07,&#34;m01&#34;:-42.000003814697266,&#34;m02&#34;:27.000001907348633,&#34;m10&#34;:42.000003814697266,&#34;m11&#34;:2.2165460222822730e-07,&#34;m12&#34;:-1.5000015497207642},&#34;opacity&#34;:1.0,&#34;blendMode&#34;:&#34;NORMAL&#34;,&#34;visible&#34;:true}"/>
<path d="M4 3.49952H7.76077V20.6754H4V3.49952ZM7.76077 11.6581L7.23356 9.11237C7.23356 8.58073 7.30386 7.9673 7.44445 7.27209C7.60847 6.57687 7.92479 5.91233 8.39342 5.27845C8.88549 4.62413 9.60015 4.08227 10.5374 3.65288C11.4981 3.22348 12.7634 3.00878 14.3333 3.00878C14.3333 3.00878 15.7158 6.32128 14.3333 6.32128C12.9509 6.32128 11.7676 6.48486 10.7834 6.81202C9.79932 7.13918 9.04951 7.69126 8.53401 8.46827C8.01852 9.22483 7.76077 10.2881 7.76077 11.6581Z" fill="white"/>
<path d="M20 20.1847H16.2392V8.3421H20V20.1847ZM16.2392 12.0261L16.7664 14.5718C16.7664 15.1035 16.6961 15.7169 16.5556 16.4121C16.3915 17.1073 16.0752 17.7719 15.6066 18.4058C15.1145 19.0601 14.3998 19.6019 13.4626 20.0313C12.5019 20.4607 11.2366 20.6754 9.66666 20.6754C9.66666 20.6754 8.2842 17.3629 9.66666 17.3629C11.0491 17.3629 12.2324 17.1994 13.2166 16.8722C14.2007 16.545 14.9505 15.993 15.466 15.2159C15.9815 14.4594 16.2392 13.3961 16.2392 12.0261Z" fill="white"/>
<circle cx="18" cy="5" r="2" fill="white"/>
<defs>
<clipPath id="paint0_diamond_1_56_clip_path"><rect width="24" height="24" rx="2"/></clipPath><linearGradient id="paint0_diamond_1_56" x1="0" y1="0" x2="500" y2="500" gradientUnits="userSpaceOnUse">
<stop stop-color="#356EFF"/>
<stop offset="0.336538" stop-color="#5379DD"/>
<stop offset="1" stop-color="#244BB8"/>
</linearGradient>
</defs>
</svg>
