<svg width="146" height="24" viewBox="0 0 146 24" fill="none" xmlns="http://www.w3.org/2000/svg">
<g clip-path="url(#clip0_7_2)">
<path d="M3.584 20V8.45H5.872V12.08L5.652 11.2C5.81333 10.6427 6.08467 10.1367 6.466 9.682C6.862 9.22733 7.30933 8.868 7.808 8.604C8.32133 8.34 8.84933 8.208 9.392 8.208C9.64133 8.208 9.876 8.23 10.096 8.274C10.3307 8.318 10.514 8.36933 10.646 8.428L10.052 10.892C9.876 10.8187 9.678 10.76 9.458 10.716C9.25267 10.6573 9.04733 10.628 8.842 10.628C8.446 10.628 8.06467 10.7087 7.698 10.87C7.346 11.0167 7.03067 11.2293 6.752 11.508C6.488 11.772 6.27533 12.0873 6.114 12.454C5.95267 12.806 5.872 13.1947 5.872 13.62V20H3.584ZM19.3329 20.22C18.1449 20.22 17.0889 19.9707 16.1649 19.472C15.2556 18.9587 14.5369 18.262 14.0089 17.382C13.4956 16.502 13.2389 15.49 13.2389 14.346C13.2389 13.4367 13.3856 12.608 13.6789 11.86C13.9722 11.112 14.3756 10.4667 14.8889 9.924C15.4169 9.36667 16.0402 8.94133 16.7589 8.648C17.4922 8.34 18.2842 8.186 19.1349 8.186C19.8829 8.186 20.5796 8.33267 21.2249 8.626C21.8702 8.90467 22.4276 9.29333 22.8969 9.792C23.3809 10.2907 23.7476 10.8847 23.9969 11.574C24.2609 12.2487 24.3856 12.9893 24.3709 13.796L24.3489 14.764H14.9109L14.4049 12.96H22.3909L22.0609 13.334V12.806C22.0169 12.322 21.8556 11.8893 21.5769 11.508C21.2982 11.1267 20.9462 10.826 20.5209 10.606C20.0956 10.386 19.6336 10.276 19.1349 10.276C18.3429 10.276 17.6756 10.43 17.1329 10.738C16.5902 11.0313 16.1796 11.4713 15.9009 12.058C15.6222 12.63 15.4829 13.3413 15.4829 14.192C15.4829 14.9987 15.6516 15.7027 15.9889 16.304C16.3262 16.8907 16.8029 17.3453 17.4189 17.668C18.0349 17.9907 18.7462 18.152 19.5529 18.152C20.1249 18.152 20.6529 18.0567 21.1369 17.866C21.6356 17.6753 22.1709 17.3307 22.7429 16.832L23.8869 18.438C23.5349 18.79 23.1022 19.098 22.5889 19.362C22.0902 19.626 21.5549 19.8387 20.9829 20C20.4256 20.1467 19.8756 20.22 19.3329 20.22ZM29.1875 20V8.45H31.4535V20H29.1875ZM30.2875 5.898C29.8035 5.898 29.4295 5.77333 29.1655 5.524C28.9015 5.27467 28.7695 4.92267 28.7695 4.468C28.7695 4.04267 28.9015 3.698 29.1655 3.434C29.4442 3.17 29.8182 3.038 30.2875 3.038C30.7715 3.038 31.1455 3.16267 31.4095 3.412C31.6735 3.66133 31.8055 4.01333 31.8055 4.468C31.8055 4.89333 31.6662 5.238 31.3875 5.502C31.1235 5.766 30.7569 5.898 30.2875 5.898ZM41.8226 20.22C40.7519 20.22 39.7912 19.956 38.9406 19.428C38.1046 18.9 37.4372 18.1813 36.9386 17.272C36.4546 16.3627 36.2126 15.3433 36.2126 14.214C36.2126 13.0847 36.4546 12.0653 36.9386 11.156C37.4372 10.2467 38.1046 9.528 38.9406 9C39.7912 8.472 40.7519 8.208 41.8226 8.208C42.8492 8.208 43.7806 8.42067 44.6166 8.846C45.4672 9.25667 46.1126 9.82133 46.5526 10.54L45.2986 12.08C45.0639 11.7427 44.7632 11.4347 44.3966 11.156C44.0299 10.8773 43.6412 10.6573 43.2306 10.496C42.8199 10.3347 42.4239 10.254 42.0426 10.254C41.3386 10.254 40.7079 10.43 40.1506 10.782C39.6079 11.1193 39.1752 11.5887 38.8526 12.19C38.5299 12.7913 38.3686 13.466 38.3686 14.214C38.3686 14.962 38.5372 15.6367 38.8746 16.238C39.2119 16.8247 39.6592 17.294 40.2166 17.646C40.7739 17.998 41.3899 18.174 42.0646 18.174C42.4606 18.174 42.8419 18.108 43.2086 17.976C43.5899 17.844 43.9566 17.646 44.3086 17.382C44.6606 17.118 44.9906 16.7953 45.2986 16.414L46.5526 17.954C46.0832 18.614 45.4086 19.1567 44.5286 19.582C43.6632 20.0073 42.7612 20.22 41.8226 20.22ZM50.67 20V3.72H52.936V10.826L52.54 11.09C52.6867 10.5767 52.9727 10.1073 53.398 9.682C53.8233 9.242 54.3293 8.89 54.916 8.626C55.5027 8.34733 56.104 8.208 56.72 8.208C57.6 8.208 58.3333 8.384 58.92 8.736C59.5067 9.07333 59.9467 9.594 60.24 10.298C60.5333 11.002 60.68 11.8893 60.68 12.96V20H58.414V13.114C58.414 12.454 58.326 11.9113 58.15 11.486C57.974 11.046 57.7027 10.7307 57.336 10.54C56.9693 10.3347 56.5147 10.2467 55.972 10.276C55.532 10.276 55.1287 10.3493 54.762 10.496C54.3953 10.628 54.0727 10.8187 53.794 11.068C53.53 11.3173 53.3173 11.6107 53.156 11.948C53.0093 12.2707 52.936 12.6227 52.936 13.004V20H51.814C51.6233 20 51.4327 20 51.242 20C51.0513 20 50.8607 20 50.67 20ZM70.178 20.22C69.2247 20.22 68.352 19.956 67.56 19.428C66.7827 18.9 66.1593 18.1813 65.69 17.272C65.2207 16.3627 64.986 15.336 64.986 14.192C64.986 13.0333 65.2207 12.0067 65.69 11.112C66.174 10.2027 66.8193 9.49133 67.626 8.978C68.4473 8.46467 69.364 8.208 70.376 8.208C70.9773 8.208 71.5273 8.296 72.026 8.472C72.5247 8.648 72.9573 8.89733 73.324 9.22C73.7053 9.528 74.0133 9.88733 74.248 10.298C74.4973 10.7087 74.6513 11.1487 74.71 11.618L74.204 11.442V8.45H76.492V20H74.204V17.25L74.732 17.096C74.644 17.492 74.4607 17.8807 74.182 18.262C73.918 18.6287 73.5733 18.9587 73.148 19.252C72.7373 19.5453 72.2753 19.78 71.762 19.956C71.2633 20.132 70.7353 20.22 70.178 20.22ZM70.772 18.13C71.4613 18.13 72.07 17.9613 72.598 17.624C73.126 17.2867 73.5367 16.8247 73.83 16.238C74.138 15.6367 74.292 14.9547 74.292 14.192C74.292 13.444 74.138 12.7767 73.83 12.19C73.5367 11.6033 73.126 11.1413 72.598 10.804C72.07 10.4667 71.4613 10.298 70.772 10.298C70.0973 10.298 69.496 10.4667 68.968 10.804C68.4547 11.1413 68.044 11.6033 67.736 12.19C67.4427 12.7767 67.296 13.444 67.296 14.192C67.296 14.9547 67.4427 15.6367 67.736 16.238C68.044 16.8247 68.4547 17.2867 68.968 17.624C69.496 17.9613 70.0973 18.13 70.772 18.13ZM81.6359 20V8.45H83.9239V12.08L83.7039 11.2C83.8652 10.6427 84.1365 10.1367 84.5179 9.682C84.9139 9.22733 85.3612 8.868 85.8599 8.604C86.3732 8.34 86.9012 8.208 87.4439 8.208C87.6932 8.208 87.9279 8.23 88.1479 8.274C88.3825 8.318 88.5659 8.36933 88.6979 8.428L88.1039 10.892C87.9279 10.8187 87.7299 10.76 87.5099 10.716C87.3045 10.6573 87.0992 10.628 86.8939 10.628C86.4979 10.628 86.1165 10.7087 85.7499 10.87C85.3979 11.0167 85.0825 11.2293 84.8039 11.508C84.5399 11.772 84.3272 12.0873 84.1659 12.454C84.0045 12.806 83.9239 13.1947 83.9239 13.62V20H81.6359ZM96.8128 20.22C95.7568 20.22 94.8108 19.9633 93.9748 19.45C93.1534 18.922 92.5008 18.2107 92.0168 17.316C91.5328 16.4067 91.2908 15.3727 91.2908 14.214C91.2908 13.0553 91.5254 12.0287 91.9948 11.134C92.4788 10.2247 93.1314 9.51333 93.9528 9C94.7741 8.472 95.7054 8.208 96.7468 8.208C97.3188 8.208 97.8688 8.30333 98.3968 8.494C98.9394 8.67 99.4234 8.91933 99.8488 9.242C100.274 9.55 100.604 9.89467 100.839 10.276C101.088 10.6427 101.213 11.0167 101.213 11.398L100.553 11.442V3.72H102.819V20H100.553V17.25H100.993C100.993 17.602 100.875 17.954 100.641 18.306C100.406 18.6433 100.091 18.9587 99.6948 19.252C99.3134 19.5453 98.8661 19.78 98.3528 19.956C97.8541 20.132 97.3408 20.22 96.8128 20.22ZM97.1208 18.262C97.8101 18.262 98.4188 18.086 98.9468 17.734C99.4748 17.382 99.8854 16.9053 100.179 16.304C100.487 15.688 100.641 14.9913 100.641 14.214C100.641 13.4367 100.487 12.7473 100.179 12.146C99.8854 11.53 99.4748 11.046 98.9468 10.694C98.4188 10.342 97.8101 10.166 97.1208 10.166C96.4314 10.166 95.8228 10.342 95.2948 10.694C94.7668 11.046 94.3488 11.53 94.0408 12.146C93.7474 12.7473 93.6008 13.4367 93.6008 14.214C93.6008 14.9913 93.7474 15.688 94.0408 16.304C94.3488 16.9053 94.7668 17.382 95.2948 17.734C95.8228 18.086 96.4314 18.262 97.1208 18.262Z" fill="black"></path>
<g clip-path="url(#clip1_7_2)">
<path d="M117.951 22.6125L117.681 22.5563L117.522 22.3781L117.858 22.3969L118.077 22.5187L117.979 22.5516L117.951 22.6125Z" fill="#0E0E0C"></path>
<path d="M122.375 22.0406L122.128 21.8906L121.854 21.8297L122.189 21.7594L122.478 21.9891L122.375 22.0406Z" fill="#0E0E0C"></path>
<path d="M119.106 23.2734L119.204 23.025L119.469 22.6547L119.348 22.6031L119.264 22.4859L119.064 22.6875L118.901 22.7719L119.106 23.2734Z" fill="#3A3423"></path>
<path d="M123.744 22.4813L123.959 22.2984L124.387 22.1625L124.322 22.0453V21.9L124.042 21.9422L123.549 22.0078L123.642 22.4297L123.744 22.4813Z" fill="#3A3423"></path>
<path d="M118.105 22.7859L117.858 22.6359L117.807 22.5141L118.179 22.4484L118.347 22.6172L118.105 22.7859Z" fill="#3A3423"></path>
<path d="M122.729 22.0078L122.464 21.8953L122.138 21.9938L122.431 22.2328L122.645 22.1531L122.729 22.0078Z" fill="#3A3423"></path>
<path d="M119.208 20.025L118.859 21.5859L118.798 22.2375L118.836 22.6266L119.041 23.0859L119.227 23.475L119.017 23.5359L118.938 23.7234L118.743 23.4609L118.291 23.4094L117.699 23.4656L117.248 23.3812L117.061 23.2781L117.136 22.9734L117.783 22.9875L118.347 22.6172L118.822 19.7953L119.208 20.025Z" fill="#4B442D"></path>
<path d="M119.069 23.4094L119.218 23.5734L119.339 23.6578L119.422 24L119.208 23.7656L119.064 23.6531L118.91 23.5969L118.971 23.4562L119.069 23.4094Z" fill="#0E0E0C"></path>
<path d="M117.196 23.2453L117.01 23.2219L116.638 23.3813L116.801 23.1516L116.954 23.0344L117.201 23.025L117.266 23.1141L117.196 23.2453Z" fill="#0E0E0C"></path>
<path d="M122.804 21.8672L123.12 21.3469L123.144 18.975L123.502 19.0266L123.665 19.0359L123.456 21.0234L123.479 21.7078L123.642 22.4297L123.963 22.5937L124.182 23.0344L123.963 23.0531L123.791 23.1984L123.581 22.8703L123.046 22.8609L122.687 22.5937L122.063 22.6969L121.714 22.5703L121.318 22.4344L121.365 22.1906L121.891 22.2281L122.212 22.3125L122.645 22.1531L122.804 21.8672Z" fill="#4B442D"></path>
<path d="M123.828 23.0484L123.959 23.2359L124.163 23.2875L124.266 23.4984L124.336 23.1984L123.996 22.9359L123.828 23.0484Z" fill="#0E0E0C"></path>
<path d="M121.327 22.3828L121.22 22.3266L120.941 22.6078L121.034 22.3266L121.188 22.1578L121.406 22.2375L121.43 22.3406L121.327 22.3828Z" fill="#0E0E0C"></path>
<path d="M118.514 19.2281L118.552 19.6359L118.608 20.1937L118.943 20.4141L119.353 20.1563L119.502 19.7484L119.567 19.125L120.014 17.9156L117.625 17.7938L118.011 18.5531L118.514 19.2281Z" fill="#0E0E0C"></path>
<path d="M123.344 19.2469L122.953 18.9187L122.883 18.4219L122.836 18.0797L122.343 17.775L121.989 16.9641L123.605 16.1344L124.434 16.0172L124.126 17.2031L123.884 17.7094L123.921 18.4453L123.87 18.9047L123.344 19.2469Z" fill="#0E0E0C"></path>
<path d="M113.094 6.49219L113.41 5.6625L113.415 4.65469L112.828 3.74531L112.372 3.11719L112.19 2.77969L112.53 2.53594L112.12 2.02969L111.785 1.79063L111.743 1.37344L111.85 1.17656L112.693 0.820312L113.28 0.403125L114.402 0L115.571 0.05625L116.992 0.609375L117.928 1.20937L118.943 3.08438L119.618 4.72031L120.037 6.02344L115.324 6.48281L113.094 6.49219Z" fill="#171617"></path>
<path d="M122.096 7.25156L123.53 9.25312L125.467 11.5172L126.259 12.2016L125.933 12.3937L126.585 12.9984L127.693 13.9172L128.602 17.1703L123.409 14.4234L121.933 10.0547L122.096 7.25156Z" fill="#111D34"></path>
<path d="M113.094 6.49219L112.432 8.52188L112.521 10.9688L118.994 18.3937L119.572 18.4969L119.939 18.7453L119.776 18.4172L120.154 18.5484L119.944 18.2859L120.494 18.4875L120.349 18.2625L121.104 18.6281L120.806 18.2438L121.304 18.3656L120.992 18.0328L121.388 18.0891L121.122 17.5125L121.835 18.2297L121.704 17.7797L121.951 17.8547L121.923 17.5641L122.291 17.9203L122.44 17.5969L122.71 17.6672L123.213 16.9875L123.241 17.2641L123.404 16.9406L123.432 17.2031L123.744 16.9781L123.693 17.1656L124.149 16.7297L124.112 17.0391L124.396 16.6922L124.424 16.9688L124.69 16.5656L124.569 15.2859L123.19 9.92813L122.096 7.25156L120.219 5.54531L118.836 5.00625L115.11 5.37188L113.094 6.49219Z" fill="#171617"></path>
<path d="M112.521 10.9687L113.271 13.1109L115.837 16.7719L118.053 18.15L118.994 18.3937L119.348 18.3609L119.111 18.2672L119.506 18.1641L119.055 17.9156L119.646 17.5734L119.385 17.5594L119.693 17.3906L119.409 17.2734L119.772 17.2172L119.385 17.1188L119.744 16.9547L119.478 16.8047L119.804 16.6875L119.488 16.5703L119.66 16.5328L119.492 16.4109L119.832 16.2422L119.572 16.1531L119.87 15.8812L119.641 15.8859L119.981 15.6L119.688 15.5016L119.949 15.2766L119.446 14.9484L119.907 14.8688L119.502 14.55L120.056 14.3812L119.762 14.2313L120.177 14.1891L118.873 11.925L117.429 9.53437L115.553 7.76719L113.168 8.16562L112.777 10.0547L112.521 10.9687Z" fill="#F2F3F0"></path>
<path d="M111.85 1.17656L110.625 1.32656L109.75 1.575L109.149 1.97344L109 2.29219L109.056 2.43281L109.345 2.17969L109.941 2.025L111.184 2.14219L112.53 2.53594L112.12 2.02969L111.785 1.79063L111.743 1.37344L111.85 1.17656Z" fill="#4B4D50"></path>
<path d="M112.372 3.11719L111.091 2.67656L109.815 2.44219L109.396 2.30156L109.251 2.25937L109.345 2.17969L109.941 2.025L111.184 2.14219L112.53 2.53594L112.19 2.77969L112.372 3.11719Z" fill="#45453D"></path>
<path d="M109.591 2.15156L110.001 2.1L111.179 2.19375L112.46 2.58281L112.53 2.53594L112.47 2.46562L111.166 2.10469L109.903 1.9875L109.326 2.13281L109.251 2.25937L109.591 2.15156Z" fill="#171617"></path>
<path d="M126.767 13.5703L132.448 15.6984L140.351 18.7688L138.996 18.6797L126.506 14.1234L125.817 13.6641L126.767 13.5703Z" fill="#0F2026"></path>
<path d="M123.763 14.3016L128.355 16.0969L136.975 18.8438L138.745 19.9969L140.091 20.3109L141.325 19.7766L138.693 18.5672L126.506 14.1234L125.817 13.6641L124.95 13.8375L122.948 13.7531L123.763 14.3016Z" fill="#254D53"></path>
<path d="M135.666 19.2281C135.601 19.1906 133.734 18.675 133.734 18.675L131.545 17.6063L126.804 16.2469L122.794 14.775L123.409 14.4234L123.763 14.3016L128.355 16.0969L136.98 18.8438L138.749 19.9969L135.666 19.2281Z" fill="#52867F"></path>
<path d="M140.351 18.7688L142 19.1109L141.707 19.3078L141.325 19.7766L138.4 18.45L140.351 18.7688Z" fill="#2B4598"></path>
<path d="M114.36 2.19844L114.742 2.09063L115.273 2.10938L115.865 2.48438L115.203 2.27344L115.52 2.57813L114.998 2.33906L114.621 2.32969L114.053 2.38594L114.36 2.19844Z" fill="#34302D"></path>
<path d="M114.411 2.625L114.98 2.63438L115.776 3.07031L114.994 2.78906L114.137 2.71406L114.411 2.625Z" fill="#34302D"></path>
<path d="M114.77 3.32344L115.338 3.61406L116.083 4.77188L115.227 3.73125L115.45 4.28906L114.952 3.6L114.183 3.225L114.77 3.32344Z" fill="#34302D"></path>
<path d="M114.356 3.57656L114.817 3.83438L115.175 4.39688L114.761 3.9375L114.356 3.57656Z" fill="#34302D"></path>
<path d="M114.682 4.46719L115.38 5.13281L115.948 6.27656L116.819 6.75469L115.837 6.48281L115.501 5.96719L115.548 6.43125L115.222 5.77969L115.157 5.25469L114.682 4.46719Z" fill="#34302D"></path>
<path d="M113.923 0.478126L114.598 0.262501L115.529 0.510938L114.593 0.431251L114.91 0.571876L114.3 0.515626L113.629 0.600001L113.923 0.478126Z" fill="#34302D"></path>
<path d="M114.067 0.787501L114.435 0.754688L115.115 0.909376L114.444 0.862501L113.564 0.900001L114.067 0.787501Z" fill="#34302D"></path>
<path d="M126.105 15.5203L126.59 15.2531L126.292 14.4844L125.784 13.875L122.65 12.5813L120.745 11.7L119.949 12.1359L119.506 12.6797L126.105 15.5203Z" fill="#365F9A"></path>
<path d="M119.949 12.1359L121.495 12.9703L124.522 14.325L121.439 12.7734L120.126 12.0375L119.949 12.1359Z" fill="#1F4C92"></path>
<path d="M113.424 8.27812L113.238 9.08437L113.41 9.95156L113.247 10.65L113.825 11.5312L115.576 12.6984L115.795 12.1219L115.762 11.6109L115.38 10.9734L113.843 9.98437L113.62 9.59531L113.424 8.27812Z" fill="#3B707B"></path>
<path d="M116.572 10.8984L115.119 9.96094L113.424 8.27812L113.238 9.08437L113.843 9.98437L115.38 10.9734L115.911 11.2875L116.596 11.2406L116.572 10.8984Z" fill="#1F4C92"></path>
<path d="M115.576 12.6984L117.061 13.3031L118.025 13.7016L118.598 13.2938L118.948 12.4828L118.3 12.1359L116.256 11.2641L115.911 11.2875L115.38 10.9734L115.762 11.6109L115.795 12.1219L115.576 12.6984Z" fill="#3371B8"></path>
<path d="M128.038 17.7984C128.038 17.7984 128.83 18.15 128.634 17.7609L128.145 17.2453L127.959 16.5703L127.181 15.9891L119.87 12.8109L118.938 12.4828L118.589 13.2938L118.016 13.7016L123.67 15.8953L128.038 17.7984Z" fill="#37424D"></path>
<path d="M119.329 13.7063L124.308 15.8859L125.942 16.4063L121.113 14.2828L119.329 13.7063Z" fill="#171617"></path>
<path d="M121.169 13.7859L123.819 15.2109L125.016 15.5859L122.99 14.5922L121.169 13.7859Z" fill="#171617"></path>
<path d="M125.672 15.8531L126.967 16.4813L127.633 16.6547L126.585 16.1625L125.672 15.8531Z" fill="#171617"></path>
<path d="M115.729 10.3547L118.403 10.7859L119.59 11.0531L120.848 11.3344L120.889 12.075L120.028 12.6094L119.506 12.6797L118.947 12.4828L118.3 12.1359L116.256 11.2641L116.596 11.2406L116.572 10.8984L115.729 10.3547Z" fill="#37424D"></path>
<path d="M115.767 11.7L116.652 12.1406L118.053 12.9844L116.666 12.3844L115.781 11.9109L115.767 11.7Z" fill="#1F4C92"></path>
<path d="M117.127 11.1094L118.524 11.8359L119.227 12.0938L117.76 11.2406L117.127 11.1094Z" fill="#171617"></path>
<path d="M117.839 10.6969L118.803 11.3062L119.665 11.6531L118.123 10.7437L117.839 10.6969Z" fill="#171617"></path>
<path d="M119.739 11.2969L120.643 10.8891L120.624 10.6453L123.614 12.0328L125.235 12.8203L125.612 13.3125L125.784 13.875L125.793 14.0719L121.569 12.3187L119.739 11.2969Z" fill="#1F4C92"></path>
<path d="M120.624 10.6453L121.807 11.3719L124.587 12.5719L125.225 12.675L124.634 11.9531L124.354 11.5734L121.886 10.3078L121.728 10.7344L120.624 10.6453Z" fill="#386DCE"></path>
<path d="M123.679 10.3266L124.331 11.2172L124.373 11.8594L122.086 10.8L121.886 10.3078L123.097 10.6031L123.679 10.3266Z" fill="#52867F"></path>
<path d="M113.294 2.30156L113.522 2.28281L113.764 2.14687L113.857 1.96406L113.76 1.55625L113.452 1.41562L113.131 1.48594L112.954 1.66406L112.917 2.025L113.117 2.27812L113.294 2.30156Z" fill="#4B4D50"></path>
<path d="M113.28 2.15625L113.084 1.94531L113.126 1.67344L113.401 1.56094L113.62 1.65938L113.69 2.01094L113.457 2.15625H113.28Z" fill="#171617"></path>
<path d="M113.322 1.93125L113.373 1.83281L113.354 1.73437L113.266 1.70625L113.163 1.77187V1.87969L113.252 1.93594L113.322 1.93125Z" fill="#F2F3F0"></path>
<path d="M118.743 23.4609L118.291 23.4094L118.598 22.875L118.743 23.4609Z" fill="#3A3423"></path>
<path d="M123.046 22.8609L123.153 22.2375L122.855 22.7156L123.046 22.8609Z" fill="#3A3423"></path>
<path d="M124.312 21.9281L124.513 21.9516L124.657 22.1344L124.648 22.2187L124.48 22.0781L124.364 22.125L124.252 22.0312L124.312 21.9281Z" fill="#0E0E0C"></path>
<path d="M119.273 22.5094L119.45 22.4109L119.674 22.4719L119.716 22.5469L119.497 22.5328L119.432 22.6406L119.287 22.6312L119.273 22.5094Z" fill="#0E0E0C"></path>
</g>
</g>
<defs>
<clipPath id="clip0_7_2">
<rect width="146" height="24"></rect>
</clipPath>
<clipPath id="clip1_7_2">
<rect width="33" height="24" fill="white" transform="translate(109)"></rect>
</clipPath>
</defs>
</svg>